<svg width="65" height="64" viewBox="0 0 65 64" fill="none" xmlns="http://www.w3.org/2000/svg">
<path d="M24.3564 6.84766L25.3864 5.13166L30.3894 8.13462L29.3594 9.85062L24.3564 6.84766Z" fill="#472AD7"/>
<path d="M9.85547 41H17.8555V43H9.85547V41Z" fill="#472AD7"/>
<path d="M19.8555 41H27.8555V43H19.8555V41Z" fill="#472AD7"/>
<path d="M9.85547 45H39.8555V47H9.85547V45Z" fill="#472AD7"/>
<path d="M9.85547 49H39.8555V51H9.85547V49Z" fill="#472AD7"/>
<path d="M9.85547 57H11.8555V59H9.85547V57Z" fill="#472AD7"/>
<path d="M13.8555 57H15.8555V59H13.8555V57Z" fill="#472AD7"/>
<path d="M17.8555 57H19.8555V59H17.8555V57Z" fill="#472AD7"/>
<path d="M9.85547 53H39.8555V55H9.85547V53Z" fill="#472AD7"/>
<path d="M49.8563 45.0009V40.3339L56.0813 32.0349L53.1993 27.7119L51.0533 28.7839L48.8563 26.5869L46.6593 28.7839L44.5133 27.7119L41.6313 32.0349L47.8563 40.3339V45.0009H49.8563ZM44.0813 31.9669L45.1993 30.2899L47.0533 31.2179L48.8563 29.4149L50.6593 31.2179L52.5133 30.2899L53.6313 31.9669L49.8563 37.0009V33.0009H47.8563V37.0009L44.0813 31.9669Z" fill="#472AD7"/>
<path d="M43.8555 47H53.8555V49H43.8555V47Z" fill="#472AD7"/>
<path d="M51.6755 18H47.8555V11C47.8555 9.897 46.9585 9 45.8555 9H35.8495C35.7825 4.578 32.1705 1 27.7325 1H21.0915C19.4775 1 18.0125 1.822 17.1735 3.173L17.0915 3.2C15.1565 3.846 13.8555 5.65 13.8555 7.691C13.8555 7.952 13.8765 8.213 13.9195 8.469L14.0085 9H3.85547C2.75247 9 1.85547 9.897 1.85547 11V61C1.85547 62.103 2.75247 63 3.85547 63H45.8555C46.9585 63 47.8555 62.103 47.8555 61V56.899C48.1785 56.965 48.5135 57 48.8555 57C51.6125 57 53.8555 54.757 53.8555 52V51H43.8555V52C43.8555 53.627 44.6485 55.061 45.8555 55.974V61H3.85547V11H14.3415L14.6195 12.668C14.1435 13.326 13.8555 14.128 13.8555 15C13.8555 17.206 15.6495 19 17.8555 19H17.9565C18.2455 20.419 19.1495 21.604 20.3645 22.309L20.0905 23.133L19.4855 23.254C13.9055 24.37 9.85547 29.31 9.85547 35V39H37.6595C38.0945 39.414 38.5515 39.808 39.0505 40.157L43.0025 42.924C43.5375 43.297 43.8555 43.91 43.8555 44.562V45H45.8555V44.562C45.8555 43.258 45.2175 42.033 44.1495 41.285L40.1975 38.518C37.4785 36.616 35.8555 33.498 35.8555 30.179C35.8555 24.566 40.4215 20 46.0355 20H51.6765C57.2895 20 61.8555 24.566 61.8555 30.179C61.8555 33.498 60.2325 36.616 57.5135 38.518L53.5615 41.285C52.4935 42.033 51.8555 43.258 51.8555 44.562V45H53.8555V44.562C53.8555 43.91 54.1735 43.297 54.7085 42.924L58.6605 40.157C61.9135 37.88 63.8555 34.15 63.8555 30.179C63.8555 23.463 58.3915 18 51.6755 18ZM51.6845 53C51.2715 54.164 50.1595 55 48.8555 55C47.5515 55 46.4395 54.164 46.0265 53H51.6845ZM33.8555 15C33.8555 16.103 32.9585 17 31.8555 17V13C32.9585 13 33.8555 13.897 33.8555 15ZM15.8555 15C15.8555 13.897 16.7525 13 17.8555 13V17C16.7525 17 15.8555 16.103 15.8555 15ZM20.8995 6.86L20.4085 7.106C18.9055 7.857 17.9555 9.336 17.8715 11H17.8555C17.3465 11 16.8635 11.105 16.4155 11.279L15.8925 8.138C15.8675 7.991 15.8555 7.841 15.8555 7.691C15.8555 6.513 16.6065 5.47 17.7235 5.098L18.5645 4.818L18.7505 4.447C19.1965 3.555 20.0935 3 21.0915 3H27.7325C31.1085 3 33.8555 5.747 33.8555 9.123C33.8555 9.624 33.7935 10.123 33.6725 10.608L33.4855 11.355C32.9865 11.131 32.4375 11 31.8555 11H29.8555V18C29.8555 19.654 28.5095 21 26.8555 21H22.8555C21.2015 21 19.8555 19.654 19.8555 18V11.236C19.8555 10.414 20.2315 9.66 20.8635 9.171L25.3415 11.858L26.3705 10.143L20.8995 6.86ZM24.6105 32H25.1005L26.5295 37H23.1815L24.6105 32ZM25.3205 30H24.3905L23.8045 29.121L24.8555 28.281L25.9065 29.122L25.3205 30ZM26.4885 27.025L29.0975 25.068L29.8345 25.215C30.0345 25.255 30.2255 25.323 30.4225 25.375L29.3075 29.28L26.4885 27.025ZM22.8555 23H26.8555C27.0585 23 27.2535 22.971 27.4505 22.947L27.6785 23.633L24.8555 25.75L22.0325 23.633L22.2635 22.94C22.4595 22.964 22.6525 23 22.8555 23ZM19.8765 25.215L20.6135 25.068L23.2225 27.025L20.4035 29.28L19.2845 25.361C19.4815 25.309 19.6765 25.255 19.8765 25.215ZM11.8555 35C11.8555 31.151 14.0795 27.715 17.4045 26.061L19.3065 32.72L22.2365 30.376L22.7655 31.17L21.1005 37H11.8555V35ZM35.9495 37H28.6105L26.9445 31.17L27.4735 30.376L30.4035 32.72L32.3045 26.066C32.9865 26.404 33.6185 26.831 34.2085 27.318C33.9865 28.237 33.8555 29.192 33.8555 30.179C33.8555 32.642 34.6055 35.011 35.9495 37ZM34.8835 25.298C33.4985 24.298 31.9165 23.592 30.2265 23.254L29.6215 23.133L29.3535 22.329C30.5705 21.624 31.4655 20.421 31.7555 19H31.8555C34.0615 19 35.8555 17.206 35.8555 15C35.8555 14.185 35.6075 13.427 35.1875 12.794L35.6125 11.094C35.6205 11.063 35.6225 11.031 35.6295 11H45.8555V18.009C40.9535 18.081 36.7465 21.06 34.8835 25.298Z" fill="#472AD7"/>
</svg>
