<svg width="65" height="64" viewBox="0 0 65 64" fill="none" xmlns="http://www.w3.org/2000/svg">
<path d="M47.8555 20.816V23H49.8555V21H51.8555V18C51.8555 16.346 50.5095 15 48.8555 15C48.3045 15 47.8555 14.552 47.8555 14V13H48.8555C49.4065 13 49.8555 13.448 49.8555 14V15H51.8555V14C51.8555 12.698 51.0165 11.598 49.8555 11.184V9H47.8555V11H45.8555V14C45.8555 15.654 47.2015 17 48.8555 17C49.4065 17 49.8555 17.448 49.8555 18V19H48.8555C48.3045 19 47.8555 18.552 47.8555 18V17H45.8555V18C45.8555 19.302 46.6945 20.402 47.8555 20.816Z" fill="#472AD7"/>
<path d="M48.8555 27C54.9205 27 59.8555 22.065 59.8555 16C59.8555 9.935 54.9205 5 48.8555 5C42.7905 5 37.8555 9.935 37.8555 16C37.8555 22.065 42.7905 27 48.8555 27ZM48.8555 7C53.8175 7 57.8555 11.037 57.8555 16C57.8555 20.963 53.8175 25 48.8555 25C43.8935 25 39.8555 20.963 39.8555 16C39.8555 11.037 43.8935 7 48.8555 7Z" fill="#472AD7"/>
<path d="M63.8555 16C63.8555 7.729 57.1265 1 48.8555 1C40.5845 1 33.8555 7.729 33.8555 16C33.8555 16.338 33.8845 16.668 33.9065 17H6.85547C5.20147 17 3.85547 18.346 3.85547 20V53C2.75247 53 1.85547 53.897 1.85547 55V57C1.85547 60.309 4.54647 63 7.85547 63H45.8555C49.1645 63 51.8555 60.309 51.8555 57V53.974C53.0625 53.06 53.8555 51.626 53.8555 50V35C53.8555 33.897 52.9585 33 51.8555 33V30.698C58.6935 29.304 63.8555 23.244 63.8555 16ZM48.8555 3C56.0235 3 61.8555 8.832 61.8555 16C61.8555 23.168 56.0235 29 48.8555 29C41.6875 29 35.8555 23.168 35.8555 16C35.8555 8.832 41.6875 3 48.8555 3ZM43.8555 35V50C43.8555 51.13 44.2465 52.162 44.8815 53H33.8555V52.071C33.8555 47.775 30.8115 44.047 26.6695 43.132L26.4495 42.253C27.4355 41.649 28.1855 40.719 28.5665 39.609L29.1595 39.044C30.1845 38.067 30.9625 36.842 31.4095 35.5C31.7055 34.611 31.8555 33.688 31.8555 32.752V32C31.8555 30.494 31.3575 29.003 30.4555 27.801C29.1415 26.047 27.0475 25 24.8555 25H20.8555C18.6635 25 16.5695 26.047 15.2555 27.8C14.3535 29.003 13.8555 30.494 13.8555 32V32.752C13.8555 33.688 14.0055 34.611 14.3015 35.5C14.7485 36.842 15.5275 38.067 16.5525 39.045L17.1445 39.609C17.5255 40.719 18.2755 41.65 19.2615 42.253L19.0415 43.132C14.8995 44.047 11.8555 47.775 11.8555 52.071V53H9.85547V23H35.5995C37.6685 26.902 41.4035 29.79 45.8555 30.698V33C44.7525 33 43.8555 33.897 43.8555 35ZM16.8555 35.141V36.26C16.5855 35.822 16.3615 35.356 16.1985 34.867C15.9715 34.184 15.8555 33.472 15.8555 32.752V32C15.8555 30.925 16.2105 29.859 16.8555 29C17.7935 27.748 19.2895 27 20.8555 27H24.8555C26.4215 27 27.9165 27.748 28.8555 29.001C29.5005 29.859 29.8555 30.925 29.8555 32V32.752C29.8555 33.472 29.7395 34.184 29.5125 34.867C29.3455 35.367 29.1165 35.845 28.8385 36.292C28.7475 35.04 27.8355 33.977 26.5885 33.727C24.5695 33.323 22.8305 32.158 21.6885 30.446L21.1335 29.614L19.0825 30.981C17.6885 31.91 16.8555 33.466 16.8555 35.141ZM18.8555 35.141C18.8555 34.136 19.3555 33.203 20.1915 32.645L20.6205 32.359C22.0365 34.077 23.9835 35.246 26.1965 35.688C26.5785 35.765 26.8565 36.103 26.8565 36.493V38C26.8565 39.654 25.5105 41 23.8565 41H21.8565C20.2025 41 18.8565 39.654 18.8565 38V35.141H18.8555ZM31.8555 53H25.6365L24.9155 50.117L25.1295 49.689L26.0545 50.614L28.7225 46.167C30.6215 47.468 31.8555 49.654 31.8555 52.071V53ZM22.8555 47.414L23.6385 48.197L23.2375 49H22.4735L22.0725 48.197L22.8555 47.414ZM22.6365 51H23.0745L23.5745 53H22.1365L22.6365 51ZM25.6565 47.387L24.4245 46.156L26.0705 45.059C26.3615 45.116 26.6465 45.186 26.9235 45.277L25.6565 47.387ZM21.8555 43H23.8555C24.0955 43 24.3255 42.962 24.5565 42.929L24.7135 43.559L22.8555 44.798L20.9965 43.559L21.1535 42.929C21.3855 42.962 21.6155 43 21.8555 43ZM19.6405 45.058L21.2865 46.155L20.0545 47.387L18.7875 45.275C19.0635 45.185 19.3495 45.115 19.6405 45.058ZM16.9885 46.166L19.6565 50.612L20.5805 49.688L20.7945 50.117L20.0745 53H13.8555V52.071C13.8555 49.654 15.0895 47.468 16.9885 46.166ZM21.8555 55H31.8555V57H21.8555V55ZM5.85547 20C5.85547 19.448 6.30447 19 6.85547 19H34.1575C34.2975 19.687 34.4995 20.35 34.7305 21H7.85547V53H5.85547V20ZM49.8555 55V57C49.8555 59.206 48.0615 61 45.8555 61H7.85547C5.64947 61 3.85547 59.206 3.85547 57L3.85447 55H3.85547H19.8555V57C19.8555 58.103 20.7525 59 21.8555 59H31.8555C32.9585 59 33.8555 58.103 33.8555 57V55H49.8555ZM51.8555 50C51.8555 51.654 50.5095 53 48.8555 53C47.2015 53 45.8555 51.654 45.8555 50L45.8545 35H45.8555H51.8555V50ZM49.8555 33H47.8555V30.949C48.1875 30.971 48.5175 31 48.8555 31C49.1935 31 49.5235 30.971 49.8555 30.949V33Z" fill="#472AD7"/>
<path d="M5.85547 5H7.85547V7H5.85547V5Z" fill="#472AD7"/>
<path d="M9.85547 5H11.8555V7H9.85547V5Z" fill="#472AD7"/>
<path d="M13.8555 5H15.8555V7H13.8555V5Z" fill="#472AD7"/>
<path d="M3.85547 11H8.44147L11.7345 14.294C12.1845 14.742 12.8065 15 13.4415 15C14.7725 15 15.8555 13.917 15.8555 12.586V11H17.8555C18.9585 11 19.8555 10.103 19.8555 9V3C19.8555 1.897 18.9585 1 17.8555 1H3.85547C2.75247 1 1.85547 1.897 1.85547 3V9C1.85547 10.103 2.75247 11 3.85547 11ZM3.85547 3H17.8555L17.8565 9H13.8555V12.586C13.8555 12.923 13.3875 13.117 13.1485 12.879L9.26947 9H3.85547V3Z" fill="#472AD7"/>
<path d="M35.8555 57H37.8555V59H35.8555V57Z" fill="#472AD7"/>
<path d="M39.8555 57H41.8555V59H39.8555V57Z" fill="#472AD7"/>
<path d="M43.8555 57H45.8555V59H43.8555V57Z" fill="#472AD7"/>
<path d="M35.8555 49H37.8555V51H35.8555V49Z" fill="#472AD7"/>
<path d="M39.8555 49H41.8555V51H39.8555V49Z" fill="#472AD7"/>
<path d="M33.8555 45H41.8555V47H33.8555V45Z" fill="#472AD7"/>
<path d="M33.8555 41H41.8555V43H33.8555V41Z" fill="#472AD7"/>
<path d="M33.8555 37H41.8555V39H33.8555V37Z" fill="#472AD7"/>
<path d="M33.8555 33H41.8555V35H33.8555V33Z" fill="#472AD7"/>
</svg>
