<svg width="64" height="64" viewBox="0 0 64 64" fill="none" xmlns="http://www.w3.org/2000/svg">
<path d="M23.8555 15C24.4078 15 24.8555 14.5523 24.8555 14C24.8555 13.4477 24.4078 13 23.8555 13C23.3032 13 22.8555 13.4477 22.8555 14C22.8555 14.5523 23.3032 15 23.8555 15Z" fill="#472AD7"/>
<path d="M52.8555 17H50.8555V7H44.8555V17H42.8555V9H36.8555V19H58.8555V5H52.8555V17ZM40.8555 17H38.8555V11H40.8555V17ZM46.8555 9H48.8555V17H46.8555V9ZM54.8555 7H56.8555V17H54.8555V7Z" fill="#472AD7"/>
<path d="M59.8555 1H35.8555C34.2015 1 32.8555 2.346 32.8555 4V20C32.8555 21.654 34.2015 23 35.8555 23H37.4115L34.8555 29.818V37.092C32.3175 34.049 28.7775 31.926 24.8555 31.158V28.898C27.1345 28.433 28.8555 26.414 28.8555 23.999L28.8535 19.618L29.1025 19.494C30.1835 18.953 30.8555 17.866 30.8555 16.657C30.8555 16.028 30.6705 15.42 30.3225 14.898L29.0235 12.949C28.9135 12.784 28.8555 12.593 28.8555 12.395V9.975C30.0625 9.061 30.8555 7.627 30.8555 6C30.8555 3.243 28.6125 1 25.8555 1H15.3275C12.3185 1 9.60047 2.603 8.14347 5.208L7.66247 5.4C4.74247 6.567 2.85547 9.354 2.85547 12.5C2.85547 14.703 3.79547 16.717 5.35347 18.135C5.02747 18.894 4.85547 19.713 4.85547 20.545C4.85547 23.055 6.36147 25.279 8.69247 26.212L14.8555 28.677V31.173C6.81847 32.744 0.855469 39.879 0.855469 48.143V63H32.8555V56.89C34.1625 58.222 35.9715 59 37.8555 59C41.7145 59 44.8555 55.859 44.8555 52V29.818L42.2985 23H44.8555V24.586C44.8555 25.917 45.9385 27 47.2695 27C47.9055 27 48.5275 26.742 48.9765 26.293L52.2695 23H59.8555C61.5095 23 62.8555 21.654 62.8555 20V4C62.8555 2.346 61.5095 1 59.8555 1ZM37.2985 29L38.0485 27H41.6625L42.4125 29H37.2985ZM38.7975 25L39.4395 23.288C39.5705 22.944 40.1415 22.944 40.2705 23.288L40.9125 25H38.7975ZM15.7095 33.045L17.7785 34.08L15.5575 35.412L15.1065 33.16C15.3065 33.119 15.5065 33.078 15.7095 33.045ZM19.7095 39H20.0015L22.7985 56.72L19.8555 60.399L16.9125 56.72L19.7095 39ZM20.1355 37H19.5755L19.1125 35.612L19.8555 35.166L20.5975 35.611L20.1355 37ZM21.9325 34.08L23.9965 33.048C24.2005 33.081 24.4005 33.13 24.6025 33.172L24.1545 35.413L21.9325 34.08ZM25.8555 23C24.5515 23 23.4395 22.164 23.0265 21H26.8555V23H25.8555ZM27.3595 14.059L28.6595 16.009C28.7875 16.201 28.8555 16.426 28.8555 16.657C28.8555 17.104 28.6075 17.506 28.2095 17.705L27.9615 17.829C27.4715 18.073 27.1225 18.499 26.9605 19H20.8555V20C20.8555 22.757 23.0985 25 25.8555 25H26.6715C26.2575 26.161 25.1575 27 23.8555 27H18.8555V29H22.8555V31.382L19.8555 32.882L16.8555 31.382V23.5L13.7895 21.2C13.2045 20.762 12.8555 20.063 12.8555 19.333C12.8555 18.047 13.9025 17 15.1885 17H16.8555V13.123C16.8555 11.899 17.5965 10.82 18.7005 10.359C19.3235 10.761 20.0605 11 20.8555 11H25.8555C26.1975 11 26.5325 10.965 26.8555 10.899V12.395C26.8555 12.988 27.0295 13.564 27.3595 14.059ZM9.43447 24.354C7.86847 23.728 6.85547 22.232 6.85547 20.545C6.85547 20.121 6.92747 19.704 7.05547 19.303C7.25547 19.404 7.44947 19.515 7.66147 19.599L8.48447 19.928L9.22647 18.071L8.40447 17.742C6.24847 16.881 4.85547 14.822 4.85547 12.5C4.85547 10.178 6.24847 8.119 8.40547 7.258L9.58047 6.787L9.75047 6.447C10.8135 4.321 12.9505 3 15.3275 3H25.8555C27.5095 3 28.8555 4.346 28.8555 6C28.8555 7.654 27.5095 9 25.8555 9H20.8555C19.7525 9 18.8555 8.103 18.8555 7H16.8555C16.8555 7.663 17.0325 8.279 17.3195 8.83C15.8265 9.712 14.8555 11.319 14.8555 13.123V15.013C12.6215 15.184 10.8555 17.056 10.8555 19.333C10.8555 20.689 11.5025 21.985 12.5885 22.8L14.8555 24.5V26.523L9.43447 24.354ZM2.85547 48.143C2.85547 41.561 7.13047 35.781 13.1715 33.681L14.1535 38.588L17.3575 36.666L17.8305 38.085L14.7985 57.28L17.7745 61H8.85547V45H6.85547V61H2.85547V48.143ZM40.8555 55.974V49H38.8555V56.899C38.5325 56.965 38.1975 57 37.8555 57C36.2905 57 34.7945 56.252 33.8555 54.999L32.8555 53.666V45H30.8555V61H21.9365L24.9125 57.28L21.8815 38.085L22.3545 36.666L25.5585 38.588L26.5365 33.701C30.0225 34.912 33.0115 37.352 34.8565 40.6V51H36.8565V31H38.8565V47H40.8565V31H42.8565V52C42.8555 53.627 42.0625 55.061 40.8555 55.974ZM60.8555 20C60.8555 20.552 60.4075 21 59.8555 21H51.4415L47.5625 24.879C47.3245 25.117 46.8555 24.924 46.8555 24.586V21H35.8555C35.3035 21 34.8555 20.552 34.8555 20V4C34.8555 3.448 35.3035 3 35.8555 3H59.8555C60.4075 3 60.8555 3.448 60.8555 4V20Z" fill="#472AD7"/>
<path d="M46.8555 45H48.8555V47H46.8555V45Z" fill="#472AD7"/>
<path d="M50.8555 45H62.8555V47H50.8555V45Z" fill="#472AD7"/>
<path d="M46.8555 41H48.8555V43H46.8555V41Z" fill="#472AD7"/>
<path d="M50.8555 41H62.8555V43H50.8555V41Z" fill="#472AD7"/>
<path d="M46.8555 37H48.8555V39H46.8555V37Z" fill="#472AD7"/>
<path d="M50.8555 37H62.8555V39H50.8555V37Z" fill="#472AD7"/>
<path d="M46.8555 33H48.8555V35H46.8555V33Z" fill="#472AD7"/>
<path d="M50.8555 33H62.8555V35H50.8555V33Z" fill="#472AD7"/>
</svg>
