<svg width="64" height="64" viewBox="0 0 64 64" fill="none" xmlns="http://www.w3.org/2000/svg">
<path d="M50.6235 43.142L50.4125 42.509C52.7105 41.603 54.4135 39.517 54.7755 36.999H54.8555C57.0615 36.999 58.8555 35.205 58.8555 32.999C58.8555 32.18 58.6065 31.418 58.1825 30.784C58.6255 28.931 58.8555 27.028 58.8555 25.123V18C58.8555 16.346 57.5095 15 55.8555 15H42.9785C40.2885 15 37.9285 16.699 37.0525 19.198C34.5545 20.073 32.8555 22.433 32.8555 25.123C32.8555 27.028 33.0855 28.93 33.5285 30.785C33.1045 31.42 32.8555 32.181 32.8555 33C32.8555 35.206 34.6495 37 36.8555 37H36.9355C37.2985 39.518 39.0005 41.603 41.2985 42.51L41.0875 43.143C35.4455 44.314 31.0735 48.456 29.4985 53.777L28.9035 50.205C30.1765 48.156 30.8555 45.813 30.8555 43.395V34C30.8555 32.698 30.0165 31.598 28.8555 31.184V3C28.8555 1.897 27.9585 1 26.8555 1H2.85547C1.75247 1 0.855469 1.897 0.855469 3V37C0.855469 38.103 1.75247 39 2.85547 39H2.91747C3.02147 39.422 3.25747 39.802 3.60547 40.081L7.20247 42.958C7.74047 43.389 8.16047 43.955 8.41747 44.597L8.58847 45.024C9.45847 47.198 10.8995 49.057 12.7675 50.447L11.0085 61H0.855469V63H62.8555V58.166C62.8555 50.833 57.7445 44.62 50.6235 43.142ZM41.7205 45.05L43.7795 46.08L41.5585 47.413L41.1125 45.18C41.3125 45.132 41.5155 45.089 41.7205 45.05ZM45.6365 51H46.0745L48.5745 61H43.1355L45.6365 51ZM46.1345 49H45.5765L45.1135 47.612L45.8555 47.166L46.5975 47.611L46.1345 49ZM47.9325 46.08L49.9915 45.05C50.1965 45.089 50.3995 45.132 50.6005 45.18L50.1545 47.413L47.9325 46.08ZM54.8555 35V31C55.9585 31 56.8555 31.897 56.8555 33C56.8555 34.103 55.9585 35 54.8555 35ZM34.8555 33C34.8555 31.897 35.7525 31 36.8555 31V35C35.7525 35 34.8555 34.103 34.8555 33ZM36.8555 28V29C36.2875 29 35.7485 29.123 35.2595 29.337C34.9935 27.948 34.8555 26.536 34.8555 25.123C34.8555 23.155 36.1885 21.448 38.0975 20.97L38.6795 20.824L38.8255 20.242C39.3025 18.333 41.0105 17 42.9785 17H55.8555C56.4075 17 56.8555 17.449 56.8555 18V25.123C56.8555 26.537 56.7175 27.949 56.4515 29.337C55.9615 29.123 55.4235 29 54.8555 29V28C54.8555 26.346 53.5095 25 51.8555 25H43.8555C43.3035 25 42.8555 24.551 42.8555 24V21H40.8555V23.101C38.5765 23.565 36.8555 25.585 36.8555 28ZM38.8555 36V28C38.8555 26.619 39.7935 25.453 41.0665 25.105C41.5075 26.214 42.5915 27 43.8555 27H51.8555C52.4075 27 52.8555 27.449 52.8555 28V36C52.8555 38.757 50.6125 41 47.8555 41H43.8555C41.0985 41 38.8555 38.757 38.8555 36ZM43.8555 43H47.8555C48.0585 43 48.2595 42.987 48.4585 42.969L48.6335 43.493L45.8555 44.882L43.0785 43.494L43.2535 42.97C43.4515 42.987 43.6525 43 43.8555 43ZM39.1945 45.793L40.1535 50.588L43.3565 48.666L43.8145 50.041L41.0755 61H36.8555V55H34.8555V61H30.8555V58.166C30.8555 52.61 34.2315 47.794 39.1945 45.793ZM2.85547 3H26.8555V31.184C26.8175 31.198 26.7765 31.205 26.7395 31.22C26.3945 29.945 25.2385 29 23.8555 29C23.0845 29 22.3875 29.301 21.8555 29.78C21.3235 29.3 20.6265 29 19.8555 29C19.5035 29 19.1695 29.072 18.8555 29.184V27H24.8555V25H18.8555V24C18.8555 23.648 18.7835 23.314 18.6715 23H24.8555V21H10.8555V23H13.0395C12.9275 23.314 12.8555 23.648 12.8555 24V25H4.85547V27H12.8555V29H4.85547V31H12.8555V35.697C12.8555 36.416 12.2715 37 11.5525 37C11.2945 37 11.0445 36.924 10.8295 36.781L9.64147 35.989C8.67147 35.342 7.54247 35 6.37447 35C4.98047 35 3.78447 35.821 3.21447 37H2.85547V3ZM10.4445 44.28L10.2735 43.854C9.88947 42.893 9.25947 42.043 8.45147 41.396L4.85547 38.519C4.85547 37.681 5.53747 37 6.37547 37C7.14647 37 7.89247 37.226 8.53247 37.653L9.72047 38.445C10.2645 38.808 10.8985 39 11.5525 39C13.3745 39 14.8555 37.519 14.8555 35.697V24C14.8555 23.449 15.3035 23 15.8555 23C16.4075 23 16.8555 23.449 16.8555 24V39H18.8555V32C18.8555 31.449 19.3035 31 19.8555 31C20.4075 31 20.8555 31.449 20.8555 32V39H22.8555V32C22.8555 31.449 23.3035 31 23.8555 31C24.4075 31 24.8555 31.449 24.8555 32V39H26.8555V34C26.8555 33.449 27.3035 33 27.8555 33C28.4075 33 28.8555 33.449 28.8555 34V43.395C28.8555 45.379 28.3215 47.306 27.3045 49H14.1665C12.4925 47.816 11.2095 46.19 10.4445 44.28ZM14.7025 51H27.0085L28.6755 61H13.0355L14.7025 51ZM60.8555 61H56.8555V55H54.8555V61H50.6355L47.8965 50.04L48.3545 48.665L51.5575 50.587L52.5165 45.792C57.4795 47.794 60.8555 52.61 60.8555 58.166V61Z" fill="#472AD7"/>
<path d="M20.8555 17C20.8555 14.74 19.5995 12.77 17.7485 11.747C18.4305 11.029 18.8555 10.065 18.8555 9C18.8555 6.794 17.0615 5 14.8555 5C12.6495 5 10.8555 6.794 10.8555 9C10.8555 10.065 11.2805 11.029 11.9625 11.747C10.1115 12.77 8.85547 14.74 8.85547 17V19H20.8555V17ZM12.8555 9C12.8555 7.897 13.7525 7 14.8555 7C15.9585 7 16.8555 7.897 16.8555 9C16.8555 10.103 15.9585 11 14.8555 11C13.7525 11 12.8555 10.103 12.8555 9ZM10.8555 17C10.8555 14.794 12.6495 13 14.8555 13C17.0615 13 18.8555 14.794 18.8555 17H10.8555Z" fill="#472AD7"/>
<path d="M4.85547 21H8.85547V23H4.85547V21Z" fill="#472AD7"/>
</svg>
