<svg width="14" height="12" viewBox="0 0 14 12" fill="none" xmlns="http://www.w3.org/2000/svg">
<path d="M12.6875 0.75H1.31251C0.588747 0.75 0 1.33875 0 2.06251V9.93751C0 10.6613 0.588747 11.25 1.31251 11.25H12.6875C13.4113 11.25 14 10.6613 14 9.93751V2.06251C14 1.33875 13.4113 0.75 12.6875 0.75ZM12.6875 1.625C12.7469 1.625 12.8035 1.63733 12.8552 1.65887L7 6.73359L1.14479 1.65887C1.19649 1.63736 1.25304 1.625 1.31248 1.625H12.6875ZM12.6875 10.375H1.31251C1.07112 10.375 0.874996 10.1789 0.874996 9.93748V2.58331L6.71331 7.64319C6.79578 7.71452 6.89789 7.75 7 7.75C7.10211 7.75 7.20422 7.71455 7.28669 7.64319L13.125 2.58331V9.93751C13.125 10.1789 12.9289 10.375 12.6875 10.375Z" fill="white"/>
</svg>
