<svg width="64" height="64" viewBox="0 0 64 64" fill="none" xmlns="http://www.w3.org/2000/svg">
<path d="M28.856 57H34.856V59H28.856V57Z" fill="#472AD7"/>
<path d="M28.856 53H34.856V55H28.856V53Z" fill="#472AD7"/>
<path d="M28.856 49H34.856V51H28.856V49Z" fill="#472AD7"/>
<path d="M60.8559 45H56.2699L48.1979 36.928C54.0939 33.811 59.0919 29.034 62.4429 23.002L63.0009 22L62.4429 20.998C57.9209 12.859 50.2079 6.79 41.2469 4.29C39.7649 2.298 37.4009 1 34.7329 1H28.9789C26.3109 1 23.9469 2.298 22.4649 4.29C13.5039 6.79 5.79094 12.858 1.26894 20.998L0.710938 22L1.26894 23.002C4.61994 29.034 9.61794 33.81 15.5139 36.928L7.44194 45H2.85594C1.75294 45 0.855937 45.897 0.855937 47V61C0.855937 62.103 1.75294 63 2.85594 63H12.8559C13.9589 63 14.8559 62.103 14.8559 61V47C14.8559 45.897 13.9589 45 12.8559 45H10.2699L17.4129 37.857C21.5849 39.75 26.1419 40.831 30.8559 40.966V45H26.8559C25.7529 45 24.8559 45.897 24.8559 47V61C24.8559 62.103 25.7529 63 26.8559 63H36.8559C37.9589 63 38.8559 62.103 38.8559 61V47C38.8559 45.897 37.9589 45 36.8559 45H32.8559V40.966C37.5699 40.831 42.1269 39.75 46.2989 37.857L53.4419 45H50.8559C49.7529 45 48.8559 45.897 48.8559 47V61C48.8559 62.103 49.7529 63 50.8559 63H60.8559C61.9589 63 62.8559 62.103 62.8559 61V47C62.8559 45.897 61.9589 45 60.8559 45ZM12.8579 61H2.85594V47H12.8559L12.8579 61ZM36.8579 61H26.8559V47H36.8559L36.8579 61ZM60.6949 21.969L60.7109 22L60.6939 22.031C56.9039 28.852 50.8849 33.973 43.8429 36.724C48.1179 33.237 50.8559 27.934 50.8559 22C50.8559 16.216 48.2749 10.861 43.8579 7.27C50.9509 10.055 56.9709 15.267 60.6949 21.969ZM24.8559 17C23.7529 17 22.8559 16.103 22.8559 15C22.8559 13.897 23.7529 13 24.8559 13V17ZM21.0989 11.093L21.5239 12.794C21.1039 13.427 20.8559 14.185 20.8559 15C20.8559 17.206 22.6499 19 24.8559 19H24.9569C25.2459 20.419 26.1499 21.604 27.3649 22.31L27.0749 23.178C22.6029 24.526 19.4179 28.413 18.9289 33.013C16.3949 30.043 14.8559 26.201 14.8559 22C14.8559 16.94 17.0659 12.247 20.8599 9.038C20.8599 9.066 20.8559 9.094 20.8559 9.123C20.8559 9.788 20.9379 10.451 21.0989 11.093ZM38.8559 13C39.9589 13 40.8559 13.897 40.8559 15C40.8559 16.103 39.9589 17 38.8559 17V13ZM38.7549 19H38.8559C41.0619 19 42.8559 17.206 42.8559 15C42.8559 14.185 42.6079 13.427 42.1879 12.794L42.6129 11.094C42.7739 10.451 42.8559 9.788 42.8559 9.123C42.8559 9.094 42.8519 9.066 42.8519 9.037C46.6459 12.246 48.8559 16.939 48.8559 22C48.8559 26.201 47.3169 30.043 44.7829 33.013C44.2939 28.414 41.1079 24.526 36.6369 23.178L36.3469 22.31C37.5619 21.604 38.4659 20.419 38.7549 19ZM29.8559 23H33.8559C34.0589 23 34.2519 22.964 34.4489 22.94L34.6329 23.493L31.8559 24.882L29.0789 23.493L29.2629 22.94C29.4599 22.964 29.6529 23 29.8559 23ZM33.9329 26.08L35.9529 25.07C36.3969 25.198 36.8269 25.352 37.2389 25.539L36.3839 27.551L33.9329 26.08ZM27.7589 25.07L29.7789 26.08L27.3269 27.551L26.4719 25.539C26.8849 25.352 27.3159 25.198 27.7589 25.07ZM24.7339 26.562L26.3839 30.449L29.1999 28.76L29.7839 30.056L27.0379 38.295C24.7359 37.613 22.6389 36.457 20.8559 34.939V34.247C20.8559 31.136 22.3519 28.323 24.7339 26.562ZM31.5019 29L30.9269 27.723L31.8559 27.166L32.7849 27.723L32.2099 29H31.5019ZM34.5119 28.76L37.3279 30.449L38.9779 26.562C41.3599 28.323 42.8559 31.136 42.8559 34.246V34.938C41.0729 36.456 38.9759 37.612 36.6739 38.294L33.9279 30.055L34.5119 28.76ZM36.8559 18C36.8559 19.654 35.5099 21 33.8559 21H29.8559C28.2019 21 26.8559 19.654 26.8559 18V11.854C26.8559 11.136 27.2309 10.487 27.8429 10.128C28.7199 11.371 30.1119 12.23 31.7369 12.393L36.8559 12.905V18ZM28.9969 38.74L31.5759 31H32.1349L34.7149 38.74C33.7839 38.899 32.8319 39 31.8559 39C30.8799 39 29.9279 38.899 28.9969 38.74ZM28.9789 3H34.7329C38.1089 3 40.8559 5.747 40.8559 9.123C40.8559 9.624 40.7939 10.124 40.6729 10.608L40.4859 11.355C39.9869 11.131 39.4379 11 38.8559 11H37.9079L31.9359 10.403C30.1799 10.228 28.8559 8.765 28.8559 7H26.8559C26.8559 7.449 26.9099 7.886 27.0119 8.304C25.9389 8.86 25.2049 9.85 24.9559 11H24.8559C24.2739 11 23.7249 11.131 23.2249 11.355L23.0379 10.607C22.9179 10.124 22.8559 9.624 22.8559 9.123C22.8559 5.747 25.6029 3 28.9789 3ZM3.01694 22.031L3.00094 22L3.01794 21.969C6.74194 15.266 12.7629 10.054 19.8579 7.269C15.4379 10.86 12.8559 16.215 12.8559 22C12.8559 27.934 15.5939 33.237 19.8679 36.724C12.8259 33.973 6.80694 28.852 3.01694 22.031ZM50.8559 61V47H60.8559L60.8579 61H50.8559Z" fill="#472AD7"/>
<path d="M4.85596 57H10.856V59H4.85596V57Z" fill="#472AD7"/>
<path d="M4.85596 53H10.856V55H4.85596V53Z" fill="#472AD7"/>
<path d="M4.85596 49H10.856V51H4.85596V49Z" fill="#472AD7"/>
<path d="M54.7009 55.4303L53.5629 54.2923L52.1489 55.7063L55.0109 58.5683L59.6879 51.5543L58.0239 50.4443L54.7009 55.4303Z" fill="#472AD7"/>
</svg>
