<svg width="65" height="64" viewBox="0 0 65 64" fill="none" xmlns="http://www.w3.org/2000/svg">
<path d="M59.7545 19H59.8555C62.0615 19 63.8555 17.206 63.8555 15C63.8555 14.185 63.6075 13.427 63.1875 12.794L63.6125 11.094C63.7735 10.451 63.8555 9.788 63.8555 9.123C63.8555 4.644 60.2115 1 55.7325 1H49.0915C47.4775 1 46.0125 1.822 45.1725 3.174L45.0915 3.2C43.6775 3.672 42.6095 4.765 42.1325 6.114C40.1785 3.046 36.7555 1 32.8555 1C28.8245 1 25.3025 3.186 23.3865 6.429C22.2725 3.272 19.2665 1 15.7325 1H9.97847C5.49947 1 1.85547 4.644 1.85547 9.123C1.85547 9.788 1.93747 10.451 2.09847 11.093L2.52347 12.794C2.10347 13.427 1.85547 14.185 1.85547 15C1.85547 17.206 3.64947 19 5.85547 19H5.95647C6.32047 20.786 7.64847 22.206 9.36347 22.747L9.14647 23.182C4.83347 24.62 1.85547 28.703 1.85547 33.28V61H22.5745C24.6405 62.305 27.0125 63 29.4615 63H38.8555C40.5095 63 41.8555 61.654 41.8555 60C41.8555 59.605 41.7745 59.23 41.6355 58.884C42.9105 58.538 43.8555 57.383 43.8555 56C43.8555 55.229 43.5545 54.532 43.0755 54C43.5555 53.468 43.8555 52.771 43.8555 52C43.8555 51.648 43.7835 51.314 43.6715 51H45.8555V63H59.8555V52C62.0615 52 63.8555 50.206 63.8555 48V33.28C63.8555 28.703 60.8775 24.62 56.5645 23.182L56.3475 22.747C58.0625 22.206 59.3905 20.786 59.7545 19ZM54.5665 23.657L52.8555 24.798L51.1445 23.657L51.4735 23H54.2375L54.5665 23.657ZM56.0055 25.102C56.2875 25.199 56.5645 25.306 56.8315 25.43L55.6575 27.387L54.4255 26.155L56.0055 25.102ZM37.1585 45C36.4395 45 35.8555 44.416 35.8555 43.697C35.8555 43.439 35.9305 43.189 36.0745 42.974L36.8665 41.786C37.5135 40.815 37.8555 39.686 37.8555 38.519C37.8555 37.006 36.8895 35.724 35.5465 35.228C37.0435 32.893 37.8555 30.182 37.8555 27.343V25.385C39.8355 26.182 41.4965 27.621 42.5705 29.485C42.1125 30.675 41.8555 31.956 41.8555 33.28V45H37.1585ZM17.8555 33V44.495L14.1455 44.124L16.9325 41.337L14.8985 30.15L15.1295 29.688L16.0535 30.612L18.5335 26.479C20.5765 28.088 21.8555 30.578 21.8555 33.28V44.895L19.8555 44.695V33H17.8555ZM11.2855 26.156L10.0535 27.388L8.87947 25.43C9.14647 25.306 9.42347 25.199 9.70547 25.102L11.2855 26.156ZM11.4735 23H14.2375L14.5665 23.657L12.8555 24.798L11.1445 23.657L11.4735 23ZM19.8555 13C20.9585 13 21.8555 13.897 21.8555 15C21.8555 16.103 20.9585 17 19.8555 17V13ZM19.7545 19H19.8555C20.5875 19 21.2645 18.788 21.8555 18.444V18.758C21.8555 21.148 22.6165 23.462 24.0125 25.378C23.2915 25.98 22.6505 26.674 22.0915 27.439C20.8005 25.479 18.8745 23.953 16.5645 23.182L16.3475 22.747C18.0625 22.206 19.3905 20.786 19.7545 19ZM15.6575 27.388L14.4255 26.156L16.0055 25.103C16.2875 25.2 16.5645 25.307 16.8315 25.431L15.6575 27.388ZM12.8555 27.414L13.6385 28.197L13.2375 29H12.4735L12.0725 28.197L12.8555 27.414ZM12.6895 31H13.0215L14.7785 40.663L12.8555 42.586L10.9325 40.663L12.6895 31ZM23.1405 29.485C24.2145 27.622 25.8755 26.182 27.8555 25.385V27.343C27.8555 31.009 29.2065 34.459 31.6495 37.157L29.8975 39.347C29.4675 39.885 28.9015 40.305 28.2595 40.562L27.8315 40.733C26.3435 41.328 25.0005 42.189 23.8545 43.272V33.28C23.8555 31.956 23.5985 30.675 23.1405 29.485ZM32.8555 35.526C31.2725 33.664 30.2885 31.41 29.9745 29H35.7365C35.4225 31.411 34.4385 33.664 32.8555 35.526ZM32.8555 21C30.0985 21 27.8555 18.757 27.8555 16V12.162C27.8555 10.868 28.5865 9.707 29.7175 9.138C32.1545 10.87 34.9445 12.128 37.8555 12.808V16C37.8555 18.757 35.6125 21 32.8555 21ZM32.8555 23C33.4845 23 34.0925 22.909 34.6725 22.752C35.0115 23.328 35.4035 23.867 35.8555 24.363V27H29.8555V24.363C30.3065 23.868 30.6985 23.329 31.0375 22.752C31.6185 22.909 32.2265 23 32.8555 23ZM43.6195 27.439C43.0605 26.674 42.4195 25.98 41.6985 25.378C43.0945 23.462 43.8555 21.148 43.8555 18.758V18.444C44.4465 18.788 45.1235 19 45.8555 19H45.9565C46.3205 20.786 47.6485 22.206 49.3635 22.747L49.1465 23.182C46.8365 23.952 44.9105 25.479 43.6195 27.439ZM45.8555 17C44.7525 17 43.8555 16.103 43.8555 15C43.8555 13.897 44.7525 13 45.8555 13V17ZM49.7055 25.102L51.2855 26.155L50.0535 27.387L48.8795 25.43C49.1465 25.306 49.4235 25.199 49.7055 25.102ZM52.6895 31H53.0215L54.7785 40.663L52.8555 42.586L50.9325 40.663L52.6895 31ZM53.2375 29H52.4735L52.0725 28.197L52.8555 27.414L53.6385 28.197L53.2375 29ZM57.8555 18C57.8555 19.654 56.5095 21 54.8555 21H50.8555C49.2015 21 47.8555 19.654 47.8555 18V12C47.8555 10.346 49.2015 9 50.8555 9H54.8555C56.5095 9 57.8555 10.346 57.8555 12V18ZM59.8555 17V13C60.9585 13 61.8555 13.897 61.8555 15C61.8555 16.103 60.9585 17 59.8555 17ZM45.7245 5.098L46.5645 4.818L46.7505 4.448C47.1965 3.555 48.0935 3 49.0915 3H55.7325C59.1085 3 61.8555 5.747 61.8555 9.123C61.8555 9.624 61.7935 10.124 61.6725 10.608L61.4855 11.355C60.9865 11.131 60.4375 11 59.8555 11H59.7545C59.2895 8.721 57.2695 7 54.8555 7H50.8555C48.4415 7 46.4215 8.721 45.9565 11H45.8555C45.3465 11 44.8635 11.105 44.4155 11.279L43.8925 8.139C43.8675 7.99 43.8555 7.841 43.8555 7.691C43.8555 6.513 44.6065 5.471 45.7245 5.098ZM32.8555 3C37.8185 3 41.8555 7.037 41.8555 12V18.758C41.8555 20.74 41.2205 22.657 40.0535 24.24C39.2175 23.758 38.3255 23.367 37.3805 23.105C37.0515 22.753 36.7705 22.363 36.5145 21.957C38.5145 20.723 39.8555 18.518 39.8555 16V11.182L38.9555 11C35.8925 10.388 32.9535 9.073 30.4555 7.2L30.0365 6.886L29.5395 7.052C27.3355 7.786 25.8555 9.84 25.8555 12.162V16C25.8555 18.518 27.1965 20.723 29.1975 21.956C28.9405 22.362 28.6605 22.752 28.3315 23.104C27.3865 23.366 26.4945 23.758 25.6585 24.239C24.4905 22.657 23.8555 20.74 23.8555 18.758V12C23.8555 7.037 27.8925 3 32.8555 3ZM3.85547 15C3.85547 13.897 4.75247 13 5.85547 13V17C4.75247 17 3.85547 16.103 3.85547 15ZM7.85547 18V11.236C7.85547 10.238 8.41047 9.34 9.30247 8.894L8.40847 7.105C6.90547 7.858 5.95547 9.337 5.87147 11H5.85547C5.27347 11 4.72447 11.131 4.22447 11.355L4.03747 10.607C3.91747 10.124 3.85547 9.624 3.85547 9.123C3.85547 5.747 6.60247 3 9.97847 3H15.7325C19.1085 3 21.8555 5.747 21.8555 9.123C21.8555 9.624 21.7935 10.124 21.6725 10.608L21.4855 11.355C20.9865 11.131 20.4375 11 19.8555 11V9H17.8555V18C17.8555 19.654 16.5095 21 14.8555 21H10.8555C9.20147 21 7.85547 19.654 7.85547 18ZM7.17647 26.479L9.65647 30.612L10.5805 29.688L10.8115 30.15L8.77847 41.337L11.2785 43.837L7.85547 43.495V33H5.85547V43.295L3.85547 43.095V33.28C3.85547 30.578 5.13447 28.088 7.17647 26.479ZM3.85547 45.105L21.8555 46.905V59H3.85547V45.105ZM41.8555 52C41.8555 52.552 41.4075 53 40.8555 53H33.8555V55H40.8555C41.4075 55 41.8555 55.448 41.8555 56C41.8555 56.552 41.4075 57 40.8555 57H33.8555V59H38.8555C39.4075 59 39.8555 59.448 39.8555 60C39.8555 60.552 39.4075 61 38.8555 61H29.4605C27.4765 61 25.5495 60.466 23.8555 59.449V46.339C25.0395 44.656 26.6585 43.355 28.5755 42.588L29.0035 42.417C29.9655 42.032 30.8155 41.402 31.4605 40.595L34.3365 37C35.1735 37 35.8555 37.682 35.8555 38.52C35.8555 39.291 35.6295 40.036 35.2025 40.677L34.4105 41.865C34.0465 42.409 33.8555 43.043 33.8555 43.697C33.8555 45.519 35.3365 47 37.1585 47H46.8555C47.4075 47 47.8555 47.448 47.8555 48C47.8555 48.552 47.4075 49 46.8555 49H33.8555V51H40.8555C41.4075 51 41.8555 51.448 41.8555 52ZM47.8555 50.816C48.7025 50.514 49.3695 49.847 49.6715 49H51.8555V61H47.8555V50.816ZM53.8555 61V49H57.8555V61H53.8555ZM59.8555 50V46H61.8555V48C61.8555 49.103 60.9585 50 59.8555 50ZM61.8555 33.28V44H59.8555V33H57.8555V47H49.6715C49.3695 46.153 48.7025 45.486 47.8555 45.184V33H45.8555V45H43.8555V33.28C43.8555 30.578 45.1345 28.088 47.1765 26.479L49.6565 30.612L50.5805 29.688L50.8115 30.15L48.7775 41.337L52.8555 45.414L56.9325 41.337L54.8985 30.15L55.1295 29.688L56.0535 30.612L58.5335 26.479C60.5765 28.088 61.8555 30.578 61.8555 33.28Z" fill="#472AD7"/>
<path d="M9.88721 7.23633L11.8262 6.75057L12.8281 10.7499L10.8891 11.2356L9.88721 7.23633Z" fill="#472AD7"/>
<path d="M13.8857 7.23535L15.8248 6.74959L16.8267 10.7489L14.8876 11.2347L13.8857 7.23535Z" fill="#472AD7"/>
</svg>
