<svg width="65" height="64" viewBox="0 0 65 64" fill="none" xmlns="http://www.w3.org/2000/svg">
<path d="M57.4245 26.895L55.0125 26.413C54.2185 26.254 53.6015 25.638 53.4435 24.844L53.0005 22.629C53.9235 21.947 54.6715 21.046 55.1705 20.001H55.8555C58.0615 20.001 59.8555 18.207 59.8555 16.001C59.8555 15.1 59.5455 14.277 59.0405 13.608L59.4065 12.51C59.7045 11.614 59.8555 10.685 59.8555 9.743C59.8555 4.922 55.9335 1 51.1115 1H48.4605C46.0015 1 43.7095 2.159 42.2525 4.12L41.5235 4.303C40.9565 4.444 40.4385 4.686 39.9765 5H3.85547V31H13.5745L12.0745 37H1.85547V39H63.8555V34.738C63.8555 30.938 61.1505 27.64 57.4245 26.895ZM28.0745 31L29.5745 37H19.1365L20.6365 31H28.0745ZM30.1365 31H34.7955C34.1975 32.125 33.8555 33.399 33.8555 34.738V37H31.6365L30.1365 31ZM35.8555 34.738C35.8555 31.888 37.8835 29.414 40.6785 28.855L41.5235 28.686L45.3025 37H35.8555V34.738ZM45.1495 27.265L47.0105 28.195L44.4345 30.256L43.5235 28.252C44.1465 28.054 44.7025 27.716 45.1495 27.265ZM49.1345 31H48.5765L48.1825 29.819L48.8555 29.281L49.5285 29.819L49.1345 31ZM46.8285 32.081L46.4085 34.6L45.2885 32.135L46.5185 31.151L46.8285 32.081ZM48.7025 33H49.0085L49.6755 37H48.0355L48.7025 33ZM50.8825 32.081L51.1925 31.151L52.4225 32.135L51.3025 34.6L50.8825 32.081ZM54.1875 28.253L53.2765 30.257L50.7005 28.196L52.5615 27.266C53.0085 27.716 53.5645 28.054 54.1875 28.253ZM51.4825 25.235C51.5025 25.335 51.5365 25.43 51.5635 25.527L48.8555 26.882L46.1465 25.528C46.1735 25.431 46.2075 25.336 46.2275 25.236L46.5545 23.604C47.2765 23.856 48.0485 24 48.8555 24C49.6625 24 50.4345 23.856 51.1565 23.603L51.4825 25.235ZM53.8555 17C53.8555 19.757 51.6125 22 48.8555 22C46.0985 22 43.8555 19.757 43.8555 17V13.123C43.8555 11.749 44.7835 10.556 46.1135 10.216C46.5805 11.266 47.6335 12 48.8555 12H52.8555C53.4065 12 53.8555 12.448 53.8555 13V17ZM55.8555 18H55.7755C55.8225 17.672 55.8555 17.34 55.8555 17V14C56.9585 14 57.8555 14.897 57.8555 16C57.8555 17.103 56.9585 18 55.8555 18ZM42.0085 6.242L43.4725 5.876L43.6865 5.555C44.7535 3.955 46.5385 3 48.4605 3H51.1115C54.8305 3 57.8555 6.025 57.8555 9.743C57.8555 10.469 57.7385 11.186 57.5095 11.876L57.3675 12.301C56.9005 12.11 56.3905 12 55.8555 12H55.6715C55.2575 10.839 54.1575 10 52.8555 10H48.8555C48.3045 10 47.8555 9.552 47.8555 9C47.8555 8.448 48.3045 8 48.8555 8H49.8555V6H48.8555C47.4815 6 46.3195 6.929 45.9665 8.191L45.6425 8.272C43.7875 8.736 42.4135 10.2 41.9985 12H41.8555C41.3525 12 40.8765 12.104 40.4335 12.273C40.1685 11.352 39.8555 10.045 39.8555 9C39.8555 7.693 40.7405 6.56 42.0085 6.242ZM41.8555 14V17C41.8555 17.34 41.8885 17.672 41.9355 18H41.8555C40.7525 18 39.8555 17.103 39.8555 16C39.8555 14.897 40.7525 14 41.8555 14ZM5.85547 7H38.3035C38.0235 7.615 37.8555 8.289 37.8555 9C37.8555 10.608 38.4205 12.587 38.7265 13.539C38.1895 14.22 37.8555 15.067 37.8555 16C37.8555 18.206 39.6495 20 41.8555 20H42.5405C43.0395 21.045 43.7875 21.946 44.7105 22.628L44.2675 24.843C44.1085 25.637 43.4925 26.253 42.6985 26.412L40.2865 26.894C38.7395 27.203 37.3745 27.957 36.2995 28.999H5.85547V7ZM15.6365 31H18.5745L17.0745 37H14.1365L15.6365 31ZM61.8555 37H52.4085L56.1875 28.686L57.0325 28.855C59.8275 29.414 61.8555 31.889 61.8555 34.738V37Z" fill="#472AD7"/>
<path d="M35.8555 11H23.8555V15H19.8555V9H7.85547V21H13.8555V27H27.8555V21H35.8555V11ZM9.85547 11H17.8555V19H9.85547V11ZM25.8555 25H15.8555V21H19.8555V17H25.8555V25ZM33.8555 19H27.8555V15H25.8555V13H33.8555V19Z" fill="#472AD7"/>
<path d="M57.3445 53.352C58.9035 52.039 59.8555 50.086 59.8555 48V47C59.8555 43.691 57.1645 41 53.8555 41H51.8555C48.5465 41 45.8555 43.691 45.8555 47V48C45.8555 50.087 46.8085 52.041 48.3655 53.352C45.9425 54.043 43.9645 55.706 42.8485 57.882C41.7235 55.708 39.7415 54.051 37.3495 53.359C38.8795 52.074 39.8555 50.149 39.8555 48V47C39.8555 43.691 37.1645 41 33.8555 41H31.8555C28.5465 41 25.8555 43.691 25.8555 47V48C25.8555 50.149 26.8315 52.074 28.3615 53.359C25.9665 54.052 23.9835 55.711 22.8595 57.889C21.7365 55.711 19.7515 54.047 17.3565 53.353C18.8825 52.068 19.8555 50.146 19.8555 48V46C19.8555 43.243 17.6125 41 14.8555 41H7.85547C6.75247 41 5.85547 41.897 5.85547 43V48C5.85547 50.149 6.83147 52.074 8.36147 53.359C4.60947 54.444 1.85547 57.903 1.85547 62V63H63.8555V62C63.8555 57.913 61.1455 54.436 57.3445 53.352ZM54.8555 55C54.8555 56.103 53.9585 57 52.8555 57C51.7525 57 50.8555 56.103 50.8555 55C50.8555 54.9 50.8805 54.807 50.8945 54.711C51.5255 54.895 52.1865 55 52.8555 55C53.5245 55 54.1865 54.895 54.8165 54.711C54.8305 54.807 54.8555 54.9 54.8555 55ZM47.8555 48V47C47.8555 44.794 49.6495 43 51.8555 43H53.8555C56.0615 43 57.8555 44.794 57.8555 47V48C57.8555 49.927 56.7265 51.703 54.9715 52.528C53.6895 53.145 52.0295 53.149 50.7315 52.524C48.9845 51.703 47.8555 49.927 47.8555 48ZM27.8555 48V47C27.8555 44.794 29.6495 43 31.8555 43H33.8555C36.0615 43 37.8555 44.794 37.8555 47V48C37.8555 50.757 35.6125 53 32.8555 53C30.0985 53 27.8555 50.757 27.8555 48ZM30.8555 55H34.8555C38.3745 55 41.2875 57.614 41.7755 61H23.9355C24.4235 57.614 27.3365 55 30.8555 55ZM7.85547 48V43H14.8555C16.5095 43 17.8555 44.346 17.8555 46V48C17.8555 50.757 15.6125 53 12.8555 53C10.0985 53 7.85547 50.757 7.85547 48ZM3.92647 61C4.41347 57.612 7.33447 55 10.8555 55H14.8555C18.3765 55 21.2975 57.612 21.7845 61H3.92647ZM43.9335 61C44.3215 58.277 46.2615 56.045 48.8835 55.282C49.0315 57.354 50.7465 59 52.8555 59C54.9635 59 56.6785 57.355 56.8265 55.284C59.4495 56.047 61.3975 58.277 61.7845 61H43.9335Z" fill="#472AD7"/>
</svg>
