<svg width="621" height="394" viewBox="0 0 621 394" fill="none" xmlns="http://www.w3.org/2000/svg">
<path fill-rule="evenodd" clip-rule="evenodd" d="M402.229 211.316C401.048 209.51 401.459 207.152 403.146 206.049C404.833 204.947 407.158 205.517 408.338 207.323C409.519 209.129 409.108 211.487 407.421 212.589C405.734 213.692 403.409 213.122 402.229 211.316ZM391.137 220.002C389.957 218.196 390.368 215.838 392.055 214.735C393.742 213.633 396.066 214.203 397.247 216.009C398.427 217.815 398.017 220.173 396.33 221.275C394.643 222.378 392.318 221.808 391.137 220.002ZM382.055 225.885C380.368 226.988 379.957 229.346 381.138 231.152C382.318 232.958 384.643 233.528 386.33 232.425C388.017 231.323 388.428 228.965 387.247 227.159C386.067 225.353 383.742 224.783 382.055 225.885ZM371.138 241.492C369.957 239.686 370.368 237.328 372.055 236.225C373.742 235.122 376.067 235.692 377.247 237.498C378.428 239.304 378.017 241.662 376.33 242.765C374.643 243.868 372.318 243.298 371.138 241.492ZM363.715 254.578C362.028 253.475 361.617 251.117 362.798 249.311C363.978 247.505 366.303 246.935 367.99 248.038C369.677 249.141 370.088 251.499 368.907 253.305C367.727 255.111 365.402 255.681 363.715 254.578ZM354.952 259.262C353.772 261.068 354.182 263.426 355.869 264.528C357.556 265.631 359.881 265.061 361.062 263.255C362.242 261.449 361.831 259.091 360.144 257.988C358.457 256.885 356.133 257.456 354.952 259.262ZM349.105 275.903C347.418 274.801 347.007 272.443 348.187 270.637C349.368 268.831 351.693 268.26 353.38 269.363C355.067 270.466 355.477 272.824 354.297 274.63C353.116 276.436 350.792 277.006 349.105 275.903ZM339.402 279.972C338.221 281.778 338.632 284.136 340.319 285.239C342.006 286.342 344.331 285.772 345.511 283.966C346.692 282.16 346.281 279.802 344.594 278.699C342.907 277.596 340.582 278.166 339.402 279.972ZM329.513 292.536C327.826 291.433 327.415 289.075 328.595 287.269C329.776 285.463 332.101 284.893 333.788 285.996C335.475 287.099 335.885 289.457 334.705 291.263C333.524 293.069 331.2 293.639 329.513 292.536ZM314.875 289.789C313.694 291.595 314.105 293.953 315.792 295.056C317.479 296.159 319.804 295.589 320.984 293.783C322.165 291.977 321.754 289.619 320.067 288.516C318.38 287.413 316.055 287.983 314.875 289.789ZM301.694 293.021C300.007 291.918 299.596 289.56 300.777 287.754C301.957 285.948 304.282 285.378 305.969 286.481C307.656 287.584 308.067 289.942 306.886 291.748C305.706 293.554 303.381 294.124 301.694 293.021ZM289.31 281.695C288.13 283.501 288.54 285.859 290.227 286.962C291.914 288.065 294.239 287.495 295.42 285.689C296.6 283.883 296.189 281.525 294.502 280.422C292.815 279.319 290.491 279.889 289.31 281.695ZM280.734 277.884C279.047 276.781 278.636 274.423 279.816 272.617C280.997 270.811 283.321 270.241 285.009 271.344C286.696 272.447 287.106 274.805 285.926 276.611C284.745 278.417 282.421 278.987 280.734 277.884ZM274.363 260.436C273.183 262.242 273.593 264.6 275.281 265.703C276.968 266.806 279.292 266.236 280.473 264.43C281.653 262.624 281.243 260.266 279.555 259.163C277.868 258.06 275.544 258.63 274.363 260.436ZM273.164 253.549C271.477 252.446 271.066 250.088 272.246 248.282C273.427 246.476 275.752 245.906 277.439 247.009C279.126 248.112 279.536 250.47 278.356 252.276C277.175 254.082 274.851 254.652 273.164 253.549ZM270.317 234.815C269.137 236.621 269.548 238.979 271.235 240.082C272.922 241.184 275.246 240.614 276.427 238.808C277.607 237.002 277.197 234.644 275.51 233.542C273.823 232.439 271.498 233.009 270.317 234.815ZM266.58 227.705C264.893 226.602 264.483 224.244 265.663 222.438C266.844 220.632 269.168 220.062 270.855 221.165C272.542 222.268 272.953 224.626 271.773 226.432C270.592 228.238 268.267 228.808 266.58 227.705ZM259.364 212.577C258.184 214.383 258.595 216.741 260.282 217.843C261.969 218.946 264.293 218.376 265.474 216.57C266.654 214.764 266.244 212.406 264.557 211.303C262.87 210.201 260.545 210.771 259.364 212.577ZM251.728 209.38C250.041 208.277 249.63 205.919 250.811 204.113C251.991 202.307 254.316 201.737 256.003 202.84C257.69 203.943 258.101 206.301 256.92 208.107C255.74 209.913 253.415 210.483 251.728 209.38ZM240.941 197.662C239.761 199.468 240.172 201.826 241.859 202.929C243.546 204.032 245.87 203.462 247.051 201.656C248.231 199.85 247.821 197.492 246.134 196.389C244.447 195.286 242.122 195.856 240.941 197.662ZM230.016 199.496C228.329 198.394 227.919 196.036 229.099 194.23C230.28 192.424 232.604 191.853 234.291 192.956C235.978 194.059 236.389 196.417 235.209 198.223C234.028 200.029 231.704 200.599 230.016 199.496ZM216.553 193.927C215.372 195.733 215.783 198.091 217.47 199.194C219.157 200.296 221.482 199.726 222.662 197.92C223.843 196.114 223.432 193.756 221.745 192.653C220.058 191.551 217.733 192.121 216.553 193.927Z" fill="#685F5F"/>
<g clip-path="url(#clip0)">
<g clip-path="url(#clip1)">
<path fill-rule="evenodd" clip-rule="evenodd" d="M567.717 128.916L395.827 152.317L417.255 171.616L431.437 204.35L443.907 196.96L461.296 213.107L567.717 128.916Z" fill="#F1F1F1"/>
<path fill-rule="evenodd" clip-rule="evenodd" d="M420.983 171.78L435.195 204.481L447.645 197.125L420.983 171.78Z" fill="#888888"/>
<path fill-rule="evenodd" clip-rule="evenodd" d="M567.599 129.58L417.239 172.28L431.423 205.006L437.524 191.564L567.599 129.58Z" fill="#DADADA"/>
</g>
</g>
<path fill-rule="evenodd" clip-rule="evenodd" d="M197.406 348.472C198.048 348.041 198.196 347.138 197.738 346.455C197.279 345.773 196.388 345.569 195.746 346C195.105 346.431 194.956 347.333 195.415 348.016C195.873 348.699 196.765 348.903 197.406 348.472ZM194.153 343.125C194.612 343.807 194.464 344.71 193.822 345.141C193.18 345.572 192.289 345.368 191.83 344.685C191.372 344.003 191.52 343.1 192.162 342.669C192.803 342.238 193.695 342.442 194.153 343.125ZM165.896 328.89C165.145 328.705 164.377 329.203 164.181 330.001C163.984 330.799 164.432 331.596 165.183 331.782C165.933 331.967 166.701 331.469 166.898 330.671C167.095 329.873 166.646 329.075 165.896 328.89ZM166.092 323.418C165.342 323.233 164.574 323.73 164.377 324.529C164.18 325.327 164.629 326.124 165.379 326.309C166.129 326.494 166.897 325.997 167.094 325.199C167.291 324.4 166.842 323.603 166.092 323.418ZM166.203 319.459C166.4 318.66 167.168 318.163 167.919 318.348C168.669 318.533 169.118 319.33 168.921 320.129C168.724 320.927 167.956 321.424 167.206 321.239C166.455 321.054 166.007 320.257 166.203 319.459ZM171.233 314.258C170.483 314.073 169.715 314.57 169.518 315.369C169.321 316.167 169.77 316.964 170.52 317.149C171.271 317.334 172.039 316.837 172.236 316.039C172.432 315.24 171.984 314.443 171.233 314.258ZM173.376 311.413C173.573 310.615 174.341 310.117 175.091 310.302C175.842 310.487 176.29 311.285 176.094 312.083C175.897 312.881 175.129 313.379 174.378 313.194C173.628 313.008 173.179 312.211 173.376 311.413ZM177.319 305.944C176.568 305.759 175.801 306.257 175.604 307.055C175.407 307.853 175.856 308.651 176.606 308.836C177.356 309.021 178.124 308.523 178.321 307.725C178.518 306.927 178.069 306.129 177.319 305.944ZM176.744 302.429C176.941 301.631 177.709 301.134 178.46 301.319C179.21 301.504 179.659 302.301 179.462 303.099C179.265 303.898 178.497 304.395 177.747 304.21C176.996 304.025 176.547 303.228 176.744 302.429ZM178.513 296.425C177.763 296.24 176.995 296.737 176.798 297.535C176.601 298.334 177.05 299.131 177.8 299.316C178.551 299.501 179.319 299.004 179.515 298.205C179.712 297.407 179.264 296.61 178.513 296.425ZM175.221 292.239C175.418 291.441 176.186 290.944 176.936 291.129C177.687 291.314 178.135 292.111 177.939 292.909C177.742 293.708 176.974 294.205 176.223 294.02C175.473 293.835 175.024 293.038 175.221 292.239ZM174.388 287.433C173.638 287.248 172.87 287.746 172.673 288.544C172.476 289.342 172.925 290.14 173.675 290.325C174.426 290.51 175.194 290.012 175.391 289.214C175.587 288.416 175.139 287.618 174.388 287.433ZM168.753 285.737C168.95 284.939 169.718 284.442 170.468 284.627C171.219 284.812 171.667 285.609 171.47 286.407C171.274 287.206 170.506 287.703 169.755 287.518C169.005 287.333 168.556 286.536 168.753 285.737ZM165.719 282.842C164.969 282.657 164.201 283.155 164.004 283.953C163.807 284.751 164.256 285.549 165.006 285.734C165.757 285.919 166.525 285.421 166.722 284.623C166.918 283.825 166.47 283.027 165.719 282.842ZM159.514 283.459C159.71 282.661 160.478 282.163 161.229 282.349C161.979 282.534 162.428 283.331 162.231 284.129C162.034 284.928 161.266 285.425 160.516 285.24C159.766 285.055 159.317 284.257 159.514 283.459ZM156.997 283.145C156.246 282.96 155.478 283.457 155.281 284.256C155.085 285.054 155.533 285.851 156.284 286.036C157.034 286.221 157.802 285.724 157.999 284.926C158.196 284.127 157.747 283.33 156.997 283.145ZM150.764 286.209C150.961 285.41 151.729 284.913 152.479 285.098C153.23 285.283 153.678 286.081 153.482 286.879C153.285 287.677 152.517 288.174 151.766 287.989C151.016 287.804 150.567 287.007 150.764 286.209ZM148.764 288.476C148.013 288.291 147.246 288.788 147.049 289.586C146.852 290.385 147.301 291.182 148.051 291.367C148.801 291.552 149.569 291.055 149.766 290.257C149.963 289.458 149.514 288.661 148.764 288.476ZM179.158 318.359C179.355 317.561 180.123 317.064 180.873 317.249C181.624 317.434 182.073 318.231 181.876 319.029C181.679 319.828 180.911 320.325 180.161 320.14C179.41 319.955 178.961 319.158 179.158 318.359ZM202.187 347.055C202.646 347.737 202.497 348.64 201.856 349.071C201.214 349.502 200.322 349.298 199.864 348.615C199.405 347.933 199.554 347.03 200.195 346.599C200.837 346.168 201.729 346.372 202.187 347.055ZM206.57 348.057C207.211 347.626 207.36 346.724 206.901 346.041C206.443 345.358 205.551 345.154 204.909 345.585C204.268 346.016 204.119 346.919 204.578 347.601C205.036 348.284 205.928 348.488 206.57 348.057ZM211.083 343.233C211.541 343.915 211.393 344.818 210.751 345.249C210.109 345.68 209.218 345.476 208.759 344.793C208.301 344.111 208.449 343.208 209.091 342.777C209.732 342.346 210.624 342.55 211.083 343.233ZM190.072 338.224C189.321 338.039 188.553 338.536 188.357 339.334C188.16 340.133 188.608 340.93 189.359 341.115C190.109 341.3 190.877 340.803 191.074 340.004C191.271 339.206 190.822 338.409 190.072 338.224ZM181.314 332.999C181.511 332.2 182.279 331.703 183.029 331.888C183.779 332.073 184.228 332.87 184.031 333.669C183.834 334.467 183.067 334.964 182.316 334.779C181.566 334.594 181.117 333.797 181.314 332.999ZM178.708 328.369C177.958 328.184 177.19 328.681 176.993 329.48C176.796 330.278 177.245 331.075 177.995 331.26C178.745 331.445 179.513 330.948 179.71 330.15C179.907 329.351 179.458 328.554 178.708 328.369ZM175.559 323.605C175.755 322.807 176.523 322.31 177.274 322.495C178.024 322.68 178.473 323.477 178.276 324.276C178.079 325.074 177.311 325.571 176.561 325.386C175.81 325.201 175.362 324.404 175.559 323.605ZM185.649 316.586C184.899 316.401 184.131 316.898 183.934 317.697C183.737 318.495 184.186 319.292 184.936 319.477C185.687 319.662 186.455 319.165 186.651 318.367C186.848 317.568 186.4 316.771 185.649 316.586ZM187.854 320.503C188.051 319.705 188.819 319.208 189.569 319.393C190.32 319.578 190.768 320.375 190.572 321.173C190.375 321.972 189.607 322.469 188.856 322.284C188.106 322.099 187.657 321.302 187.854 320.503ZM190.745 323.976C189.995 323.791 189.227 324.289 189.03 325.087C188.833 325.885 189.282 326.683 190.032 326.868C190.783 327.053 191.551 326.555 191.747 325.757C191.944 324.959 191.496 324.161 190.745 323.976ZM188.433 329.847C188.63 329.049 189.398 328.551 190.148 328.736C190.898 328.921 191.347 329.719 191.15 330.517C190.953 331.315 190.186 331.813 189.435 331.628C188.685 331.443 188.236 330.645 188.433 329.847ZM188.464 333.228C187.714 333.043 186.946 333.54 186.749 334.339C186.552 335.137 187.001 335.934 187.751 336.119C188.501 336.304 189.269 335.807 189.466 335.009C189.663 334.21 189.214 333.413 188.464 333.228ZM183.033 337.716C183.23 336.918 183.998 336.421 184.748 336.606C185.499 336.791 185.948 337.588 185.751 338.386C185.554 339.185 184.786 339.682 184.036 339.497C183.285 339.312 182.836 338.515 183.033 337.716ZM180.775 338.693C180.024 338.508 179.256 339.005 179.059 339.804C178.863 340.602 179.311 341.399 180.062 341.584C180.812 341.769 181.58 341.272 181.777 340.474C181.974 339.675 181.525 338.878 180.775 338.693ZM173.883 339.754C174.08 338.956 174.848 338.458 175.598 338.643C176.348 338.828 176.797 339.626 176.6 340.424C176.404 341.222 175.636 341.72 174.885 341.535C174.135 341.35 173.686 340.552 173.883 339.754ZM171.393 336.993C170.642 336.808 169.874 337.305 169.678 338.104C169.481 338.902 169.929 339.699 170.68 339.884C171.43 340.069 172.198 339.572 172.395 338.774C172.592 337.975 172.143 337.178 171.393 336.993ZM165.9 334.719C166.097 333.92 166.865 333.423 167.615 333.608C168.366 333.793 168.814 334.59 168.617 335.389C168.421 336.187 167.653 336.684 166.902 336.499C166.152 336.314 165.703 335.517 165.9 334.719ZM127.631 252.596C126.881 252.411 126.113 252.908 125.916 253.706C125.719 254.504 126.168 255.302 126.918 255.487C127.669 255.672 128.437 255.175 128.634 254.376C128.83 253.578 128.382 252.781 127.631 252.596ZM125.72 259.178C125.917 258.38 126.685 257.883 127.435 258.068C128.185 258.253 128.634 259.05 128.437 259.848C128.241 260.647 127.473 261.144 126.722 260.959C125.972 260.774 125.523 259.977 125.72 259.178ZM125.608 263.138C124.858 262.953 124.09 263.45 123.893 264.248C123.696 265.047 124.145 265.844 124.896 266.029C125.646 266.214 126.414 265.717 126.611 264.918C126.808 264.12 126.359 263.323 125.608 263.138ZM120.579 268.338C120.776 267.54 121.543 267.043 122.294 267.228C123.044 267.413 123.493 268.21 123.296 269.008C123.099 269.807 122.331 270.304 121.581 270.119C120.831 269.934 120.382 269.137 120.579 268.338ZM118.436 271.184C117.685 270.998 116.917 271.496 116.721 272.294C116.524 273.092 116.972 273.89 117.723 274.075C118.473 274.26 119.241 273.763 119.438 272.964C119.635 272.166 119.186 271.369 118.436 271.184ZM114.493 276.652C114.69 275.854 115.458 275.356 116.208 275.541C116.959 275.726 117.407 276.524 117.21 277.322C117.014 278.12 116.246 278.618 115.495 278.433C114.745 278.248 114.296 277.45 114.493 276.652ZM115.068 280.167C114.317 279.982 113.549 280.479 113.352 281.278C113.156 282.076 113.604 282.873 114.355 283.058C115.105 283.244 115.873 282.746 116.07 281.948C116.267 281.15 115.818 280.352 115.068 280.167ZM113.299 286.172C113.496 285.373 114.264 284.876 115.014 285.061C115.764 285.246 116.213 286.043 116.016 286.842C115.819 287.64 115.051 288.137 114.301 287.952C113.551 287.767 113.102 286.97 113.299 286.172ZM116.591 290.357C115.84 290.172 115.072 290.669 114.876 291.468C114.679 292.266 115.127 293.063 115.878 293.248C116.628 293.433 117.396 292.936 117.593 292.138C117.79 291.339 117.341 290.542 116.591 290.357ZM117.424 295.163C117.62 294.365 118.388 293.867 119.139 294.052C119.889 294.237 120.338 295.035 120.141 295.833C119.944 296.631 119.176 297.129 118.426 296.944C117.675 296.759 117.227 295.961 117.424 295.163ZM123.059 296.859C122.309 296.674 121.541 297.171 121.344 297.97C121.147 298.768 121.596 299.565 122.346 299.75C123.096 299.935 123.864 299.438 124.061 298.64C124.258 297.841 123.809 297.044 123.059 296.859ZM126.093 299.754C126.289 298.956 127.057 298.458 127.808 298.644C128.558 298.829 129.007 299.626 128.81 300.424C128.613 301.223 127.845 301.72 127.095 301.535C126.344 301.35 125.896 300.552 126.093 299.754ZM132.298 299.137C131.548 298.952 130.78 299.45 130.583 300.248C130.386 301.046 130.835 301.844 131.585 302.029C132.336 302.214 133.104 301.716 133.301 300.918C133.497 300.12 133.049 299.322 132.298 299.137ZM134.815 299.451C135.012 298.653 135.78 298.156 136.53 298.341C137.281 298.526 137.73 299.323 137.533 300.121C137.336 300.92 136.568 301.417 135.818 301.232C135.067 301.047 134.618 300.25 134.815 299.451ZM141.048 296.388C140.297 296.203 139.529 296.7 139.333 297.498C139.136 298.297 139.584 299.094 140.335 299.279C141.085 299.464 141.853 298.967 142.05 298.168C142.247 297.37 141.798 296.573 141.048 296.388ZM143.048 294.121C143.245 293.322 144.013 292.825 144.763 293.01C145.514 293.195 145.962 293.992 145.766 294.791C145.569 295.589 144.801 296.086 144.05 295.901C143.3 295.716 142.851 294.919 143.048 294.121Z" fill="#F89090" fill-opacity="0.814878"/>
<g clip-path="url(#clip2)">
<path fill-rule="evenodd" clip-rule="evenodd" d="M273.111 316.675L216.427 324.245L223.514 330.644L228.225 341.477L232.331 339.047L238.083 344.4L273.111 316.675Z" fill="#FF697B"/>
<path fill-rule="evenodd" clip-rule="evenodd" d="M224.634 330.695L229.354 341.517L233.454 339.097L224.634 330.695Z" fill="#BC4856"/>
<path fill-rule="evenodd" clip-rule="evenodd" d="M273.072 316.875L223.509 330.844L228.22 341.674L230.22 337.237L273.072 316.875Z" fill="#DC5868"/>
</g>
<path fill-rule="evenodd" clip-rule="evenodd" d="M444.509 277.264C444.644 276.959 444.984 276.813 445.269 276.939C445.554 277.064 445.677 277.413 445.543 277.718C445.409 278.024 445.069 278.17 444.783 278.044C444.498 277.919 444.375 277.57 444.509 277.264ZM450.405 277.877C450.119 277.752 449.779 277.897 449.645 278.203C449.511 278.508 449.634 278.857 449.919 278.982C450.204 279.108 450.544 278.962 450.679 278.657C450.813 278.352 450.69 278.002 450.405 277.877ZM453.96 276.801C454.094 276.496 454.434 276.35 454.719 276.476C455.005 276.601 455.127 276.95 454.993 277.256C454.859 277.561 454.519 277.707 454.234 277.581C453.948 277.456 453.826 277.107 453.96 276.801ZM471.92 279.419C471.634 279.294 471.294 279.44 471.16 279.745C471.026 280.05 471.148 280.399 471.434 280.525C471.719 280.65 472.059 280.504 472.193 280.199C472.328 279.894 472.205 279.545 471.92 279.419ZM475.779 280.456C475.913 280.151 476.253 280.005 476.539 280.13C476.824 280.256 476.947 280.605 476.813 280.91C476.678 281.216 476.338 281.361 476.053 281.236C475.768 281.11 475.645 280.761 475.779 280.456ZM480.853 278.729C480.568 278.604 480.228 278.75 480.094 279.055C479.96 279.36 480.082 279.709 480.368 279.835C480.653 279.96 480.993 279.814 481.127 279.509C481.261 279.204 481.139 278.855 480.853 278.729ZM483.101 276.42C483.236 276.114 483.576 275.969 483.861 276.094C484.146 276.22 484.269 276.569 484.135 276.874C484.001 277.179 483.661 277.325 483.375 277.2C483.09 277.074 482.967 276.725 483.101 276.42ZM454.258 256.487C453.973 256.362 453.633 256.508 453.499 256.813C453.364 257.118 453.487 257.467 453.772 257.593C454.058 257.718 454.398 257.572 454.532 257.267C454.666 256.962 454.543 256.613 454.258 256.487ZM466.51 277.701C466.644 277.396 466.984 277.25 467.27 277.375C467.555 277.501 467.678 277.85 467.544 278.155C467.409 278.461 467.069 278.606 466.784 278.481C466.499 278.355 466.376 278.006 466.51 277.701ZM463.137 275.559C462.851 275.433 462.511 275.579 462.377 275.884C462.243 276.19 462.365 276.539 462.651 276.664C462.936 276.79 463.276 276.644 463.41 276.339C463.544 276.033 463.422 275.684 463.137 275.559ZM453.077 271.797C453.211 271.492 453.552 271.346 453.837 271.471C454.122 271.597 454.245 271.946 454.111 272.251C453.976 272.556 453.636 272.702 453.351 272.577C453.066 272.451 452.943 272.102 453.077 271.797ZM450.159 267.216C449.873 267.091 449.533 267.237 449.399 267.542C449.265 267.847 449.388 268.197 449.673 268.322C449.958 268.447 450.298 268.302 450.432 267.996C450.567 267.691 450.444 267.342 450.159 267.216ZM449.002 261.432C449.137 261.127 449.477 260.981 449.762 261.106C450.047 261.232 450.17 261.581 450.036 261.886C449.902 262.191 449.561 262.337 449.276 262.212C448.991 262.086 448.868 261.737 449.002 261.432ZM459.12 256.646C458.835 256.52 458.495 256.666 458.361 256.971C458.226 257.277 458.349 257.626 458.634 257.751C458.92 257.877 459.26 257.731 459.394 257.426C459.528 257.12 459.406 256.771 459.12 256.646ZM461.765 260.446C461.899 260.141 462.239 259.995 462.525 260.121C462.81 260.246 462.932 260.595 462.798 260.901C462.664 261.206 462.324 261.352 462.039 261.226C461.753 261.101 461.631 260.752 461.765 260.446ZM462.891 264.898C462.605 264.773 462.265 264.919 462.131 265.224C461.997 265.529 462.119 265.878 462.405 266.004C462.69 266.129 463.03 265.983 463.164 265.678C463.298 265.373 463.176 265.024 462.891 264.898ZM460.704 269.873C460.838 269.568 461.178 269.422 461.464 269.547C461.749 269.673 461.871 270.022 461.737 270.327C461.603 270.632 461.263 270.778 460.978 270.653C460.692 270.527 460.57 270.178 460.704 269.873ZM459.003 273.742C458.718 273.617 458.378 273.762 458.244 274.068C458.11 274.373 458.232 274.722 458.517 274.848C458.803 274.973 459.143 274.827 459.277 274.522C459.411 274.217 459.289 273.867 459.003 273.742ZM441.379 274.569C441.093 274.444 440.753 274.59 440.619 274.895C440.485 275.2 440.608 275.549 440.893 275.675C441.178 275.8 441.518 275.654 441.652 275.349C441.787 275.044 441.664 274.695 441.379 274.569ZM437.458 270.867C437.592 270.562 437.932 270.416 438.217 270.542C438.503 270.667 438.625 271.016 438.491 271.321C438.357 271.627 438.017 271.772 437.731 271.647C437.446 271.522 437.324 271.172 437.458 270.867Z" fill="#7ED321" fill-opacity="0.715778"/>
<g clip-path="url(#clip3)">
<path fill-rule="evenodd" clip-rule="evenodd" d="M498.792 273.121L484.876 269.134L485.865 271.329L485.85 274.307L487.05 274.161L487.837 275.979L498.792 273.121Z" fill="#7ED321"/>
<path fill-rule="evenodd" clip-rule="evenodd" d="M486.142 271.465L486.13 274.442L487.328 274.298L486.142 271.465Z" fill="#5D9C16"/>
<path fill-rule="evenodd" clip-rule="evenodd" d="M498.761 273.167L485.842 271.378L485.827 274.356L486.744 273.534L498.761 273.167Z" fill="#6FBB1B"/>
</g>
<path fill-rule="evenodd" clip-rule="evenodd" d="M351.351 112.476C351.342 112.811 351.085 113.077 350.777 113.069C350.468 113.061 350.225 112.783 350.234 112.447C350.242 112.111 350.499 111.845 350.808 111.853C351.116 111.861 351.36 112.14 351.351 112.476ZM345.717 114.155C346.026 114.163 346.283 113.897 346.292 113.562C346.3 113.226 346.057 112.947 345.749 112.939C345.44 112.931 345.183 113.197 345.174 113.533C345.166 113.869 345.409 114.147 345.717 114.155ZM342.861 116.515C342.853 116.85 342.596 117.116 342.287 117.108C341.979 117.1 341.736 116.822 341.744 116.486C341.753 116.15 342.01 115.884 342.319 115.892C342.627 115.9 342.87 116.179 342.861 116.515ZM325.418 120.931C325.727 120.939 325.984 120.673 325.992 120.337C326.001 120.002 325.758 119.723 325.45 119.715C325.141 119.707 324.884 119.973 324.875 120.309C324.867 120.644 325.11 120.923 325.418 120.931ZM321.492 121.438C321.483 121.774 321.226 122.039 320.918 122.031C320.609 122.023 320.366 121.745 320.375 121.409C320.383 121.073 320.641 120.808 320.949 120.816C321.258 120.823 321.501 121.102 321.492 121.438ZM317.487 124.984C317.796 124.992 318.053 124.727 318.062 124.391C318.07 124.055 317.827 123.776 317.519 123.769C317.21 123.761 316.953 124.026 316.944 124.362C316.936 124.698 317.179 124.976 317.487 124.984ZM316.292 127.995C316.283 128.331 316.026 128.596 315.717 128.589C315.409 128.581 315.166 128.302 315.174 127.966C315.183 127.63 315.44 127.365 315.749 127.373C316.057 127.381 316.3 127.659 316.292 127.995ZM350.196 135.562C350.504 135.57 350.762 135.304 350.77 134.968C350.779 134.632 350.536 134.354 350.227 134.346C349.919 134.338 349.662 134.604 349.653 134.939C349.644 135.275 349.887 135.554 350.196 135.562ZM331.02 120.467C331.012 120.803 330.754 121.069 330.446 121.061C330.137 121.053 329.894 120.774 329.903 120.438C329.912 120.103 330.169 119.837 330.477 119.845C330.786 119.853 331.029 120.131 331.02 120.467ZM334.915 121.176C335.224 121.184 335.481 120.918 335.489 120.583C335.498 120.247 335.255 119.968 334.946 119.96C334.638 119.952 334.381 120.218 334.372 120.554C334.363 120.889 334.606 121.168 334.915 121.176ZM345.545 120.842C345.536 121.178 345.279 121.444 344.97 121.436C344.662 121.428 344.419 121.149 344.428 120.813C344.436 120.478 344.693 120.212 345.002 120.22C345.31 120.228 345.553 120.506 345.545 120.842ZM349.935 123.997C350.244 124.005 350.501 123.739 350.51 123.404C350.518 123.068 350.275 122.789 349.967 122.781C349.658 122.773 349.401 123.039 349.392 123.375C349.384 123.71 349.627 123.989 349.935 123.997ZM353.162 128.947C353.153 129.283 352.896 129.548 352.587 129.54C352.279 129.532 352.036 129.254 352.044 128.918C352.053 128.582 352.31 128.317 352.619 128.325C352.927 128.332 353.17 128.611 353.162 128.947ZM345.68 137.27C345.988 137.278 346.245 137.012 346.254 136.677C346.263 136.341 346.02 136.062 345.711 136.054C345.403 136.046 345.145 136.312 345.137 136.648C345.128 136.983 345.371 137.262 345.68 137.27ZM341.832 134.737C341.823 135.073 341.566 135.339 341.258 135.331C340.949 135.323 340.706 135.044 340.715 134.709C340.723 134.373 340.981 134.107 341.289 134.115C341.598 134.123 341.841 134.402 341.832 134.737ZM339.133 131.018C339.442 131.026 339.699 130.76 339.707 130.424C339.716 130.089 339.473 129.81 339.164 129.802C338.856 129.794 338.599 130.06 338.59 130.396C338.581 130.731 338.824 131.01 339.133 131.018ZM339.274 125.547C339.266 125.883 339.008 126.148 338.7 126.14C338.391 126.132 338.148 125.854 338.157 125.518C338.166 125.182 338.423 124.916 338.731 124.924C339.04 124.932 339.283 125.211 339.274 125.547ZM339.384 121.291C339.693 121.299 339.95 121.034 339.958 120.698C339.967 120.362 339.724 120.084 339.415 120.076C339.107 120.068 338.85 120.333 338.841 120.669C338.832 121.005 339.076 121.283 339.384 121.291ZM355.23 113.792C355.538 113.8 355.796 113.535 355.804 113.199C355.813 112.863 355.57 112.585 355.261 112.577C354.953 112.569 354.696 112.834 354.687 113.17C354.678 113.506 354.921 113.785 355.23 113.792ZM360.211 115.746C360.202 116.082 359.945 116.347 359.636 116.339C359.328 116.332 359.085 116.053 359.093 115.717C359.102 115.381 359.359 115.116 359.668 115.124C359.976 115.132 360.219 115.41 360.211 115.746Z" fill="#9751D5" fill-opacity="0.724977"/>
<g clip-path="url(#clip4)">
<path fill-rule="evenodd" clip-rule="evenodd" d="M374.61 112.74L360.203 110.885L361.492 112.892L361.89 115.817L363.065 115.496L364.1 117.164L374.61 112.74Z" fill="#9156FF"/>
<path fill-rule="evenodd" clip-rule="evenodd" d="M361.86 113.011L362.261 115.934L363.433 115.615L361.86 113.011Z" fill="#643AB2"/>
<path fill-rule="evenodd" clip-rule="evenodd" d="M374.582 112.803L361.472 112.958L361.87 115.882L362.67 114.94L374.582 112.803Z" fill="#7C49D9"/>
</g>
<path fill-rule="evenodd" clip-rule="evenodd" d="M292.812 56.02C292.191 56.0409 291.668 55.5183 291.646 54.8527C291.624 54.187 292.109 53.6305 292.731 53.6096C293.353 53.5887 293.875 54.1114 293.897 54.777C293.92 55.4426 293.434 55.9991 292.812 56.02ZM245.781 64.8406C245.803 65.5062 246.325 66.0288 246.947 66.0079C247.569 65.987 248.055 65.4305 248.032 64.7649C248.01 64.0993 247.488 63.5766 246.866 63.5975C246.244 63.6184 245.759 64.175 245.781 64.8406ZM244.838 70.3018C244.86 70.9674 245.382 71.4901 246.004 71.4692C246.625 71.4483 247.111 70.8918 247.089 70.2261C247.067 69.5605 246.544 69.0379 245.923 69.0588C245.301 69.0797 244.815 69.6362 244.838 70.3018ZM246.749 76.8737C246.127 76.8946 245.605 76.3719 245.583 75.7063C245.56 75.0407 246.046 74.4842 246.668 74.4633C247.29 74.4424 247.812 74.965 247.834 75.6306C247.856 76.2962 247.371 76.8528 246.749 76.8737ZM247.996 80.4514C248.018 81.1171 248.541 81.6397 249.162 81.6188C249.784 81.5979 250.27 81.0414 250.247 80.3758C250.225 79.7101 249.703 79.1875 249.081 79.2084C248.46 79.2293 247.974 79.7858 247.996 80.4514ZM252.138 86.345C251.517 86.3659 250.995 85.8433 250.972 85.1776C250.95 84.512 251.436 83.9555 252.057 83.9346C252.679 83.9137 253.201 84.4363 253.223 85.102C253.246 85.7676 252.76 86.3241 252.138 86.345ZM252.26 89.9606C252.282 90.6262 252.804 91.1489 253.426 91.128C254.048 91.1071 254.533 90.5505 254.511 89.8849C254.489 89.2193 253.966 88.6967 253.345 88.7176C252.723 88.7385 252.237 89.295 252.26 89.9606ZM253.588 95.9488C252.966 95.9697 252.444 95.447 252.422 94.7814C252.399 94.1158 252.885 93.5593 253.507 93.5384C254.129 93.5175 254.651 94.0401 254.673 94.7057C254.695 95.3713 254.21 95.9279 253.588 95.9488ZM251.458 99.6401C251.481 100.306 252.003 100.828 252.624 100.807C253.246 100.787 253.732 100.23 253.71 99.5644C253.687 98.8988 253.165 98.3761 252.543 98.397C251.922 98.4179 251.436 98.9744 251.458 99.6401ZM249.973 105.723C249.351 105.744 248.829 105.221 248.806 104.555C248.784 103.89 249.27 103.333 249.892 103.312C250.513 103.292 251.035 103.814 251.058 104.48C251.08 105.145 250.594 105.702 249.973 105.723ZM245.531 107.682C245.553 108.348 246.075 108.87 246.697 108.849C247.319 108.828 247.805 108.272 247.782 107.606C247.76 106.941 247.238 106.418 246.616 106.439C245.994 106.46 245.509 107.016 245.531 107.682ZM242.256 110.809C241.634 110.829 241.112 110.307 241.09 109.641C241.067 108.976 241.553 108.419 242.175 108.398C242.796 108.377 243.318 108.9 243.341 109.565C243.363 110.231 242.877 110.788 242.256 110.809ZM236.045 110.414C236.067 111.08 236.589 111.602 237.211 111.581C237.832 111.561 238.318 111.004 238.296 110.338C238.273 109.673 237.751 109.15 237.13 109.171C236.508 109.192 236.022 109.748 236.045 110.414ZM232.688 111.13C232.067 111.151 231.544 110.628 231.522 109.963C231.5 109.297 231.986 108.741 232.607 108.72C233.229 108.699 233.751 109.222 233.773 109.887C233.796 110.553 233.31 111.109 232.688 111.13ZM227.522 108.287C227.544 108.953 228.066 109.476 228.688 109.455C229.31 109.434 229.795 108.877 229.773 108.212C229.751 107.546 229.228 107.024 228.607 107.044C227.985 107.065 227.499 107.622 227.522 108.287ZM224.647 106.574C224.025 106.595 223.503 106.073 223.481 105.407C223.459 104.741 223.944 104.185 224.566 104.164C225.188 104.143 225.71 104.666 225.732 105.331C225.755 105.997 225.269 106.553 224.647 106.574ZM220.525 101.283C220.548 101.949 221.07 102.472 221.691 102.451C222.313 102.43 222.799 101.873 222.776 101.208C222.754 100.542 222.232 100.019 221.61 100.04C220.989 100.061 220.503 100.618 220.525 101.283ZM259.272 80.6756C258.651 80.6965 258.128 80.1739 258.106 79.5083C258.084 78.8426 258.569 78.2861 259.191 78.2652C259.813 78.2443 260.335 78.767 260.357 79.4326C260.38 80.0982 259.894 80.6547 259.272 80.6756ZM290.683 59.7113C290.705 60.3769 291.227 60.8996 291.849 60.8787C292.47 60.8578 292.956 60.3012 292.934 59.6356C292.911 58.97 292.389 58.4474 291.768 58.4683C291.146 58.4892 290.66 59.0457 290.683 59.7113ZM288.573 64.0052C287.952 64.0261 287.429 63.5035 287.407 62.8378C287.385 62.1722 287.871 61.6157 288.492 61.5948C289.114 61.5739 289.636 62.0965 289.658 62.7622C289.681 63.4278 289.195 63.9843 288.573 64.0052ZM282.966 64.797C282.988 65.4626 283.51 65.9853 284.132 65.9644C284.753 65.9435 285.239 65.3869 285.217 64.7213C285.194 64.0557 284.672 63.5331 284.051 63.554C283.429 63.5749 282.943 64.1314 282.966 64.797ZM279.067 66.1347C278.445 66.1556 277.923 65.6329 277.9 64.9673C277.878 64.3017 278.364 63.7452 278.986 63.7243C279.607 63.7034 280.129 64.226 280.152 64.8916C280.174 65.5572 279.688 66.1138 279.067 66.1347ZM273.398 65.1187C273.421 65.7843 273.943 66.3069 274.564 66.286C275.186 66.2651 275.672 65.7086 275.649 65.043C275.627 64.3774 275.105 63.8547 274.483 63.8756C273.862 63.8965 273.376 64.453 273.398 65.1187ZM264.434 66.6266C263.812 66.6475 263.29 66.1249 263.268 65.4592C263.246 64.7936 263.731 64.2371 264.353 64.2162C264.975 64.1953 265.497 64.7179 265.519 65.3836C265.542 66.0492 265.056 66.6057 264.434 66.6266ZM258.284 68.0399C258.306 68.7055 258.828 69.2282 259.45 69.2073C260.072 69.1864 260.557 68.6299 260.535 67.9642C260.513 67.2986 259.991 66.776 259.369 66.7969C258.747 66.8178 258.262 67.3743 258.284 68.0399ZM256.818 74.7253C256.197 74.7462 255.675 74.2236 255.652 73.5579C255.63 72.8923 256.116 72.3358 256.737 72.3149C257.359 72.294 257.881 72.8166 257.903 73.4823C257.926 74.1479 257.44 74.7044 256.818 74.7253ZM262.669 81.1647C262.692 81.8303 263.214 82.353 263.835 82.3321C264.457 82.3112 264.943 81.7546 264.92 81.089C264.898 80.4234 264.376 79.9008 263.754 79.9217C263.133 79.9426 262.647 80.4991 262.669 81.1647ZM268.277 80.3729C267.655 80.3938 267.133 79.8711 267.111 79.2055C267.088 78.5399 267.574 77.9834 268.196 77.9625C268.817 77.9416 269.339 78.4642 269.362 79.1298C269.384 79.7955 268.898 80.352 268.277 80.3729ZM269.22 74.9116C269.242 75.5773 269.764 76.0999 270.386 76.079C271.008 76.0581 271.494 75.5016 271.471 74.836C271.449 74.1703 270.927 73.6477 270.305 73.6686C269.683 73.6895 269.198 74.246 269.22 74.9116ZM270.787 71.2393C270.165 71.2602 269.643 70.7375 269.621 70.0719C269.598 69.4063 270.084 68.8498 270.706 68.8289C271.327 68.808 271.85 69.3306 271.872 69.9962C271.894 70.6618 271.408 71.2184 270.787 71.2393ZM268.896 65.27C268.918 65.9356 269.44 66.4583 270.062 66.4374C270.684 66.4165 271.169 65.86 271.147 65.1943C271.125 64.5287 270.603 64.0061 269.981 64.027C269.359 64.0479 268.873 64.6044 268.896 65.27ZM267.106 62.3138C266.485 62.3347 265.962 61.812 265.94 61.1464C265.918 60.4808 266.404 59.9243 267.025 59.9034C267.647 59.8825 268.169 60.4051 268.191 61.0707C268.214 61.7364 267.728 62.2929 267.106 62.3138ZM262.462 58.2469C262.484 58.9126 263.007 59.4352 263.628 59.4143C264.25 59.3934 264.736 58.8369 264.713 58.1713C264.691 57.5057 264.169 56.983 263.547 57.0039C262.925 57.0248 262.44 57.5813 262.462 58.2469ZM258.523 58.3794C257.901 58.4003 257.379 57.8776 257.356 57.212C257.334 56.5464 257.82 55.9899 258.442 55.969C259.063 55.9481 259.585 56.4707 259.608 57.1364C259.63 57.802 259.144 58.3585 258.523 58.3794ZM252.874 57.966C252.897 58.6316 253.419 59.1543 254.04 59.1334C254.662 59.1125 255.148 58.5559 255.126 57.8903C255.103 57.2247 254.581 56.7021 253.959 56.723C253.338 56.7439 252.852 57.3004 252.874 57.966ZM249.619 61.6951C248.998 61.716 248.476 61.1934 248.453 60.5278C248.431 59.8622 248.917 59.3056 249.538 59.2847C250.16 59.2638 250.682 59.7865 250.704 60.4521C250.727 61.1177 250.241 61.6742 249.619 61.6951ZM201.634 109.158C201.656 109.823 202.178 110.346 202.8 110.325C203.421 110.304 203.907 109.748 203.885 109.082C203.862 108.417 203.34 107.894 202.719 107.915C202.097 107.936 201.611 108.492 201.634 109.158ZM203.763 105.467C203.141 105.487 202.619 104.965 202.597 104.299C202.575 103.634 203.06 103.077 203.682 103.056C204.304 103.035 204.826 103.558 204.848 104.223C204.871 104.889 204.385 105.446 203.763 105.467ZM205.872 101.173C205.895 101.838 206.417 102.361 207.039 102.34C207.66 102.319 208.146 101.763 208.124 101.097C208.101 100.431 207.579 99.9087 206.958 99.9296C206.336 99.9505 205.85 100.507 205.872 101.173ZM211.48 100.381C210.858 100.402 210.336 99.8791 210.314 99.2135C210.292 98.5479 210.777 97.9913 211.399 97.9704C212.021 97.9495 212.543 98.4722 212.565 99.1378C212.588 99.8034 212.102 100.36 211.48 100.381ZM215.379 99.0432C215.401 99.7088 215.924 100.231 216.545 100.211C217.167 100.19 217.653 99.6331 217.63 98.9675C217.608 98.3019 217.086 97.7792 216.464 97.8001C215.842 97.821 215.357 98.3776 215.379 99.0432Z" fill="#F9B951" fill-opacity="0.753538"/>
<path fill-rule="evenodd" clip-rule="evenodd" d="M315.443 38.4135L286.948 43.2761L290.624 46.3694L293.169 51.7407L295.204 50.44L298.19 53.0311L315.443 38.4135Z" fill="#F5A623"/>
<path fill-rule="evenodd" clip-rule="evenodd" d="M291.248 46.3757L293.797 51.7412L295.83 50.4463L291.248 46.3757Z" fill="#B07618"/>
<path fill-rule="evenodd" clip-rule="evenodd" d="M315.427 38.5249L290.625 46.4802L293.17 51.8502L294.111 49.5774L315.427 38.5249Z" fill="#D8911E"/>
<path fill-rule="evenodd" clip-rule="evenodd" d="M379.155 298.122L380.265 298.492L381.318 298.687C381.318 298.687 383.116 300.574 383.727 303.322C384.291 305.862 383.919 309.125 382.811 311.316L389.104 317.329C391.173 316.711 394.049 317.609 395.685 318.547C396.239 318.864 397.545 319.746 397.096 320.192L385.561 331.647C385.11 332.097 381.363 332.196 381.046 331.647C380.096 329.999 382.184 327.141 382.811 325.053L375.425 317.69C374.489 318.159 373.188 317.444 372.219 317.69C371.209 317.946 370.53 319.153 369.53 319.153C366.912 319.153 364.539 318.226 362.85 316.542C362.668 316.361 362.566 316.116 362.566 315.86C362.566 315.605 362.668 315.36 362.85 315.179L378.32 299.009L379.155 298.122Z" fill="#E3790D"/>
<path fill-rule="evenodd" clip-rule="evenodd" d="M378.285 298.097H379.082L381.436 298.615C381.436 298.615 382.38 299.996 382.764 300.713C383.072 301.29 383.513 302.496 383.513 302.496C383.513 302.496 383.965 304.423 384.014 305.394C384.06 306.282 383.796 308.071 383.796 308.071C383.796 308.071 383.682 309.207 383.513 309.739C383.338 310.294 382.764 311.331 382.764 311.331C382.764 311.331 380.452 311.028 379.735 311.028L386.903 318.549C387.397 318.402 387.588 317.492 388.094 317.004C388.421 316.687 389.006 316.713 389.462 316.677C390.145 316.622 391.881 316.677 391.881 316.677C391.881 316.677 392.972 316.935 393.452 317.127C393.883 317.3 394.614 317.769 394.614 317.769C394.614 317.769 396.033 318.511 396.367 318.889C396.463 318.999 396.698 319.225 396.869 319.436C397.099 319.719 397.169 320.128 397.169 320.128L393.452 319.949C393.452 319.949 393.266 319.725 393.145 319.797C389.851 321.782 383.513 327.266 383.513 327.266C383.062 327.716 381.945 329.17 381.628 328.622C380.678 326.974 381.001 326.747 381.628 324.658L374.242 317.295C372.331 318.254 370.307 318.758 368.346 318.758C365.728 318.758 363.356 317.831 361.666 316.147C361.485 315.967 361.383 315.722 361.383 315.466C361.383 315.21 361.485 314.965 361.666 314.784L377.136 298.615L378.285 298.097Z" fill="#C0680F"/>
<path d="M357.556 294.889H360.424L371.827 305.87L370.356 307.494L357.556 294.889Z" fill="#C0680F"/>
<path fill-rule="evenodd" clip-rule="evenodd" d="M377.285 298.485C377.663 298.109 378.275 298.108 378.653 298.485C381.676 301.498 382.107 306.463 379.802 311.023L387.188 318.386C389.257 317.768 391.405 317.943 393.041 318.881C393.595 319.198 393.691 319.952 393.243 320.398L382.185 331.421C381.733 331.87 380.979 331.769 380.662 331.22C379.712 329.572 379.54 327.475 380.167 325.387L372.781 318.023C370.87 318.983 368.846 319.487 366.885 319.487C364.267 319.487 361.895 318.559 360.205 316.876C360.024 316.695 359.922 316.45 359.922 316.194C359.922 315.938 360.024 315.693 360.205 315.512L377.285 298.485V298.485Z" fill="#FF8B16"/>
<path d="M369.419 307.67L357 295.29" stroke="#FF8B16" stroke-width="3.85802"/>
<g filter="url(#filter0_d)">
<path fill-rule="evenodd" clip-rule="evenodd" d="M194.004 169.639L193.25 235.015C193.25 241.633 187.644 244.767 180.733 242.016L78.5167 201.329C71.6039 198.577 66 190.979 66 184.362V118.433C66 111.814 71.6062 108.68 78.5167 111.431L180.733 152.119C182.972 153.01 188.172 153.481 189.99 155.19C193.786 158.76 194.004 165.164 194.004 169.639Z" fill="#00CBD2"/>
<path fill-rule="evenodd" clip-rule="evenodd" d="M137.847 55.1254L139.416 55.9738L141.415 58.2606L142.974 60.5424C142.974 60.5424 180.538 122.204 195.507 147.973C196.179 149.13 196.593 149.594 197.363 151.12C197.666 151.72 197.83 153.134 197.83 153.134L197.83 156.476L132.919 173.109L72.9531 108.059C72.9531 108.059 107.674 78.0424 128.502 59.9725C128.763 59.7461 133.349 57.2665 133.349 57.2665L135.818 55.9738L137.847 55.1254Z" fill="url(#paint0_linear)"/>
<path fill-rule="evenodd" clip-rule="evenodd" d="M123.833 63.9368L128.697 59.8176C128.697 59.8176 133.208 67.3522 133.864 68.3479C153.608 98.2883 188.425 160.862 188.425 160.862L128.697 175.593L68.5 112.118L123.833 63.9368Z" fill="#48BEC5"/>
<path fill-rule="evenodd" clip-rule="evenodd" d="M179.5 211.383C179.5 211.383 146.691 181.545 128.75 175.139C112.858 169.464 78 175.139 78 175.139V87.1387L179.5 123.383V211.383Z" fill="white"/>
<path fill-rule="evenodd" clip-rule="evenodd" d="M177.25 123.139H179.5V129.889C179.5 129.889 179.237 129.983 179.117 129.889C178.487 129.393 177.25 128.119 177.25 128.119V123.139Z" fill="#D8D8D8"/>
<path fill-rule="evenodd" clip-rule="evenodd" d="M171 142.381L87 112.139V105.139L171 135.381V142.381Z" fill="#E64F65"/>
<path fill-rule="evenodd" clip-rule="evenodd" d="M78.2498 93.7007C72.8098 91.3757 78.2498 86.8887 78.2498 86.8887L179.507 123.221C179.507 123.221 177.755 126.032 177.755 127.333C177.755 128.303 179.507 130.191 179.507 130.191C179.507 130.191 83.6898 96.0258 78.2498 93.7007Z" fill="#EBEAEA"/>
<path fill-rule="evenodd" clip-rule="evenodd" d="M87 126.665V125.139L171 155.286V156.812L87 126.665Z" fill="#606060"/>
<path fill-rule="evenodd" clip-rule="evenodd" d="M87 134.665V133.139L171 163.286V164.812L87 134.665Z" fill="#606060"/>
<path fill-rule="evenodd" clip-rule="evenodd" d="M87 143.165V141.639L171 171.786V173.312L87 143.165Z" fill="#606060"/>
<path fill-rule="evenodd" clip-rule="evenodd" d="M87 151.165V149.639L171 179.786V181.312L87 151.165Z" fill="#606060"/>
<path d="M175.611 141.637C175.659 141.518 175.681 141.464 175.716 141.38C175.779 141.232 175.856 141.063 175.946 140.876C176.569 139.597 177.421 138.358 178.48 137.422C180.317 135.798 182.44 135.373 185.089 136.555C188.488 138.073 189.398 140.475 188.668 143.721C188.489 144.515 188.218 145.316 187.868 146.138C187.736 146.449 187.599 146.749 187.443 147.076C187.375 147.217 187.149 147.678 187.106 147.769C186.764 148.49 184.787 152.631 181.705 159.08C180.504 161.595 179.223 164.275 177.943 166.956C177.494 167.894 177.078 168.765 176.704 169.546C176.496 169.982 176.496 169.982 176.358 170.272C176.256 170.484 176.256 170.484 176.235 170.529C176.203 170.601 176.185 170.642 176.156 170.705C176.104 170.817 176.042 170.945 175.969 171.086C175.541 171.914 175.002 172.727 174.385 173.373C173.291 174.518 172.242 174.873 171.083 174.338C168.024 172.926 167.747 171.271 169.616 167.662C170.365 166.214 172.001 162.873 174.262 158.193C174.328 158.055 174.395 157.916 174.462 157.777C175.517 155.591 176.632 153.272 177.737 150.967C178.124 150.161 178.482 149.414 178.802 148.745C178.914 148.511 179.013 148.303 179.099 148.124C179.185 147.943 179.185 147.943 179.203 147.905C179.509 147.265 179.239 146.499 178.601 146.195C177.963 145.89 177.197 146.163 176.891 146.803C176.873 146.84 176.873 146.84 176.787 147.021C176.701 147.2 176.602 147.408 176.49 147.641C176.17 148.31 175.813 149.056 175.427 149.862C174.323 152.165 173.209 154.482 172.155 156.665C172.087 156.805 172.021 156.943 171.954 157.081C169.706 161.735 168.074 165.068 167.34 166.486C164.869 171.259 165.42 174.553 170.005 176.669C172.308 177.732 174.456 177.005 176.235 175.145C177.047 174.295 177.714 173.288 178.246 172.259C178.402 171.957 178.511 171.721 178.572 171.575C178.568 171.587 178.568 171.587 178.67 171.375C178.808 171.084 178.808 171.084 179.017 170.649C179.39 169.867 179.806 168.996 180.255 168.058C181.535 165.378 182.816 162.697 184.011 160.195C187.102 153.728 189.078 149.589 189.421 148.865C189.456 148.791 189.679 148.336 189.753 148.181C189.926 147.822 190.078 147.488 190.227 147.137C190.633 146.181 190.953 145.238 191.169 144.278C192.146 139.931 190.761 136.275 186.138 134.211C182.53 132.6 179.347 133.237 176.786 135.5C175.435 136.694 174.401 138.198 173.642 139.757C173.45 140.152 173.32 140.46 173.25 140.648L163.414 161.584C163.113 162.227 163.387 162.99 164.028 163.29C164.668 163.59 165.432 163.313 165.734 162.671L175.611 141.637Z" fill="#4F4F4F"/>
<path fill-rule="evenodd" clip-rule="evenodd" d="M128.702 175.682L188.653 160.983C188.653 160.983 189.891 163.737 189.891 164.985C189.891 185.119 189.565 221.219 189.373 233.841C189.33 236.643 188.653 238.157 188.653 238.157L128.702 175.682Z" fill="#5AD9E0"/>
<path fill-rule="evenodd" clip-rule="evenodd" d="M129.096 175.758L67.3248 190.122C67.3248 190.122 66.0945 188.451 66.0472 186.087C65.8094 174.202 65.7644 138.592 66.0472 117.887C66.0557 117.262 66.494 115.121 67.3248 113.722C67.9615 112.649 68.8763 112.118 68.8763 112.118L129.096 175.758Z" fill="#5AD9E0"/>
<path fill-rule="evenodd" clip-rule="evenodd" d="M186.905 158.045L194.889 156.022L197.623 155.032C197.623 155.032 197.558 154.706 197.792 155.547C197.812 155.619 197.792 157.376 197.792 157.376V160.09C197.792 160.09 197.781 162.913 197.792 164.098C197.926 178.001 198.253 212.137 197.792 231.93C197.779 232.505 196.877 236.155 194.889 238.524C192.829 240.978 189.681 242.143 189.681 242.143L185.694 243.084C185.694 243.084 187.298 241.445 188.304 239.103C189.29 236.807 189.677 233.81 189.681 233.541C189.998 212.688 189.897 176.992 189.681 165.075C189.665 164.198 189.186 162.293 188.67 161.258C188.482 160.88 188.281 160.51 188.14 160.293C187.77 159.723 187.65 159.49 187.65 159.49L186.905 158.045Z" fill="url(#paint1_linear)"/>
</g>
<path fill-rule="evenodd" clip-rule="evenodd" d="M288.191 156.699L287.889 182.884C287.889 185.535 285.643 186.791 282.875 185.689L241.924 169.392C239.155 168.29 236.91 165.247 236.91 162.596V136.189C236.91 133.538 239.156 132.283 241.924 133.385L282.875 149.682C283.771 150.039 285.854 150.227 286.583 150.912C288.104 152.342 288.191 154.907 288.191 156.699Z" fill="#609A06"/>
<path fill-rule="evenodd" clip-rule="evenodd" d="M262.093 158.888L287.209 185.435C287.209 185.435 286.653 185.831 285.834 186.067C285.192 186.253 284.387 186.341 283.561 186.064C275.331 183.307 252.38 173.88 239.753 168.734C238.778 168.336 237.25 165.123 237.25 165.123L262.093 158.888Z" fill="#79C600"/>
<path fill-rule="evenodd" clip-rule="evenodd" d="M262.033 159.118L286.046 153.229C286.046 153.229 286.542 154.332 286.542 154.832C286.541 162.898 286.41 177.36 286.333 182.417C286.316 183.539 286.044 184.146 286.044 184.146L262.033 159.118Z" fill="#8CD71B"/>
<path fill-rule="evenodd" clip-rule="evenodd" d="M262.184 159.151L237.347 165.296C237.347 165.296 237.227 165.144 237.145 164.865C237.031 164.468 236.942 163.845 236.931 163.29C236.836 158.529 236.818 144.263 236.932 135.968C236.935 135.717 237.111 134.86 237.444 134.299C237.699 133.87 238.065 133.657 238.065 133.657L262.184 159.151Z" fill="#8CD71B"/>
<path fill-rule="evenodd" clip-rule="evenodd" d="M259.81 165.186C268.474 163.886 286.321 153.144 286.321 153.144L237.986 133.643C237.986 133.643 251.981 158.403 259.81 165.186Z" fill="#92DF1C"/>
<defs>
<filter id="filter0_d" x="0.189941" y="0.682129" width="366.524" height="392.402" filterUnits="userSpaceOnUse" color-interpolation-filters="sRGB">
<feFlood flood-opacity="0" result="BackgroundImageFix"/>
<feColorMatrix in="SourceAlpha" type="matrix" values="0 0 0 0 0 0 0 0 0 0 0 0 0 0 0 0 0 0 127 0"/>
<feOffset dx="50" dy="50"/>
<feGaussianBlur stdDeviation="50"/>
<feColorMatrix type="matrix" values="0 0 0 0 0 0 0 0 0 0 0 0 0 0 0 0 0 0 0.1 0"/>
<feBlend mode="normal" in2="BackgroundImageFix" result="effect1_dropShadow"/>
<feBlend mode="normal" in="SourceGraphic" in2="effect1_dropShadow" result="shape"/>
</filter>
<linearGradient id="paint0_linear" x1="89.7476" y1="78.8655" x2="136.949" y2="177.504" gradientUnits="userSpaceOnUse">
<stop stop-color="#0BA6AC"/>
<stop offset="1" stop-color="#039BA1"/>
</linearGradient>
<linearGradient id="paint1_linear" x1="185.987" y1="156.303" x2="185.987" y2="240.232" gradientUnits="userSpaceOnUse">
<stop stop-color="#039BA1"/>
<stop offset="1" stop-color="#02696D"/>
</linearGradient>
<clipPath id="clip0">
<rect width="177" height="163" fill="white" transform="matrix(-1 0 0 1 571 61.8887)"/>
</clipPath>
<clipPath id="clip1">
<rect width="177" height="163" fill="white" transform="matrix(-1 0 0 1 571 61.8887)"/>
</clipPath>
<clipPath id="clip2">
<rect width="60" height="55" fill="white" transform="matrix(-1 0 0 1 275 293.889)"/>
</clipPath>
<clipPath id="clip3">
<rect width="16" height="14" fill="white" transform="matrix(-0.915472 -0.402382 -0.402382 0.915472 501.974 268.227)"/>
</clipPath>
<clipPath id="clip4">
<rect width="16" height="14" fill="white" transform="matrix(-0.963729 -0.266882 -0.266882 0.963729 376.97 107.418)"/>
</clipPath>
</defs>
</svg>
