<svg width="30" height="30" viewBox="0 0 30 30" fill="none" xmlns="http://www.w3.org/2000/svg">
<g clip-path="url(#clip0)">
<path d="M25.6055 0H4.39453C1.97159 0 0 1.94382 0 4.33264V25.2448C0 27.6336 1.97159 29.5775 4.39453 29.5775H25.6055C28.0284 29.5775 30 27.6336 30 25.2448V4.33264C30 1.94382 28.0284 0 25.6055 0ZM10.6055 23.454H7.08984V11.3226H10.6055V23.454ZM10.6055 9.58957H7.08984V6.12346H10.6055V9.58957ZM22.9102 23.454H19.3945V16.5218C19.3945 15.5664 18.6058 14.7887 17.6367 14.7887C16.6676 14.7887 15.8789 15.5664 15.8789 16.5218V23.454H12.3633V11.3226H15.8789V11.9759C16.7999 11.6936 17.3982 11.3226 18.5156 11.3226C20.8999 11.3251 22.9102 13.4339 22.9102 15.926V23.454Z" fill="#472AD7"/>
</g>
<defs>
<clipPath id="clip0">
<rect width="30" height="29.5775" fill="white"/>
</clipPath>
</defs>
</svg>
