<svg width="140" height="45" viewBox="0 0 140 45" fill="none" xmlns="http://www.w3.org/2000/svg">
<path d="M12.5826 38.2045H10.1807V37.2783H15.9739V38.2045H13.5719V44.728H12.5812V38.2045H12.5826Z" fill="#242424"/>
<path d="M23.8585 43.8029V44.729H18.7751V37.2793H23.7174V38.2054H19.7757V40.4931H23.2884V41.3982H19.7757V43.8029H23.8585Z" fill="#242424"/>
<path d="M28.3958 44.3204C27.8313 43.9901 27.3896 43.5368 27.0706 42.9574C26.7503 42.3795 26.5908 41.728 26.5908 41.0045C26.5908 40.281 26.7503 39.6296 27.0706 39.0517C27.391 38.4738 27.8341 38.0189 28.4015 37.6887C28.9688 37.3585 29.6024 37.1934 30.3024 37.1934C30.85 37.1934 31.3496 37.2909 31.8026 37.4861C32.2556 37.6812 32.6437 37.9709 32.9627 38.3537L32.3121 39.0246C31.7857 38.4362 31.128 38.142 30.3405 38.142C29.8198 38.142 29.3498 38.2666 28.9293 38.5143C28.5087 38.7635 28.1799 39.1042 27.9442 39.541C27.7071 39.9778 27.5886 40.4657 27.5886 41.0045C27.5886 41.5434 27.7071 42.0313 27.9442 42.4681C28.1813 42.9049 28.5101 43.2471 28.9293 43.4948C29.3498 43.744 29.8198 43.867 30.3405 43.867C31.121 43.867 31.7786 43.5683 32.3121 42.9724L32.9627 43.6434C32.6423 44.0262 32.2542 44.3174 31.797 44.5155C31.3397 44.7136 30.8373 44.8142 30.2911 44.8142C29.5912 44.8142 28.9603 44.6491 28.3958 44.3204Z" fill="#242424"/>
<path d="M42.1287 37.2793V44.729H41.1282V41.4087H37.1061V44.729H36.1055V37.2793H37.1061V40.4825H41.1282V37.2793H42.1287Z" fill="#242424"/>
<path d="M55.0265 44.729L53.515 42.4414C53.3288 42.4549 53.182 42.4624 53.0747 42.4624H51.3431V44.729H50.3425V37.2793H53.0747C53.9822 37.2793 54.6963 37.5105 55.2156 37.9713C55.7364 38.4321 55.996 39.0671 55.996 39.8761C55.996 40.451 55.862 40.9404 55.5952 41.3442C55.3285 41.7479 54.9489 42.0436 54.4549 42.2268L56.116 44.7275H55.0265V44.729ZM54.4959 41.1205C54.8289 40.8293 54.9955 40.415 54.9955 39.8761C54.9955 39.3372 54.8289 38.9229 54.4959 38.6362C54.1628 38.3495 53.6787 38.2054 53.0451 38.2054H51.3445V41.5573H53.0451C53.6787 41.5573 54.1628 41.4117 54.4959 41.1205Z" fill="#242424"/>
<path d="M64.4112 43.8029V44.729H59.3279V37.2793H64.2701V38.2054H60.3285V40.4931H63.8411V41.3982H60.3285V43.8029H64.4112Z" fill="#242424"/>
<path d="M68.95 44.3204C68.3855 43.9901 67.9438 43.5368 67.6248 42.9574C67.3045 42.3795 67.145 41.728 67.145 41.0045C67.145 40.281 67.3045 39.6296 67.6248 39.0517C67.9452 38.4738 68.3883 38.0189 68.9557 37.6887C69.523 37.3585 70.1567 37.1934 70.8566 37.1934C71.4042 37.1934 71.9038 37.2909 72.3568 37.4861C72.8098 37.6812 73.1979 37.9709 73.5169 38.3537L72.8663 39.0246C72.3399 38.4362 71.6822 38.142 70.8948 38.142C70.374 38.142 69.904 38.2666 69.4835 38.5143C69.0629 38.7635 68.7341 39.1042 68.4984 39.541C68.2613 39.9778 68.1428 40.4657 68.1428 41.0045C68.1428 41.5434 68.2613 42.0313 68.4984 42.4681C68.7355 42.9049 69.0643 43.2471 69.4835 43.4948C69.904 43.744 70.374 43.867 70.8948 43.867C71.6752 43.867 72.3328 43.5683 72.8663 42.9724L73.5169 43.6434C73.1965 44.0262 72.8084 44.3174 72.3512 44.5155C71.8939 44.7136 71.3915 44.8142 70.8454 44.8142C70.1454 44.8142 69.5131 44.6491 68.95 44.3204Z" fill="#242424"/>
<path d="M81.3422 44.729L79.8307 42.4414C79.6444 42.4549 79.4977 42.4624 79.3904 42.4624H77.6588V44.729H76.6582V37.2793H79.3904C80.2978 37.2793 81.012 37.5105 81.5313 37.9713C82.0521 38.4321 82.3117 39.0671 82.3117 39.8761C82.3117 40.451 82.1777 40.9404 81.9109 41.3442C81.6442 41.7479 81.2632 42.0436 80.7706 42.2268L82.4317 44.7275H81.3422V44.729ZM80.8116 41.1205C81.1446 40.8293 81.3111 40.415 81.3111 39.8761C81.3111 39.3372 81.1446 38.9229 80.8116 38.6362C80.4785 38.3495 79.9944 38.2054 79.3608 38.2054H77.6602V41.5573H79.3608C79.9944 41.5573 80.4771 41.4117 80.8116 41.1205Z" fill="#242424"/>
<path d="M86.3649 43.9625C85.8441 43.3951 85.5845 42.5785 85.5845 41.5143V37.2783H86.5851V41.4708C86.5851 43.0664 87.2413 43.8649 88.5566 43.8649C89.1973 43.8649 89.687 43.6683 90.0271 43.275C90.3672 42.8817 90.538 42.2798 90.538 41.4708V37.2783H91.509V41.5143C91.509 42.586 91.2493 43.4026 90.7285 43.967C90.2078 44.5314 89.481 44.8136 88.5467 44.8136C87.6125 44.8136 86.8843 44.5299 86.3649 43.9625Z" fill="#242424"/>
<path d="M95.2698 37.2793H96.2704V44.729H95.2698V37.2793Z" fill="#242424"/>
<path d="M101.472 38.2045H99.0718V37.2783H104.865V38.2045H102.463V44.728H101.472V38.2045Z" fill="#242424"/>
<path d="M112.75 43.8029V44.729H107.667V37.2793H112.609V38.2054H108.667V40.4931H112.18V41.3982H108.667V43.8029H112.75Z" fill="#242424"/>
<path d="M120.764 44.7295L119.253 42.4404C119.067 42.4539 118.92 42.4614 118.813 42.4614H117.081V44.728H116.08V37.2783H118.813C119.72 37.2783 120.434 37.5095 120.953 37.9703C121.474 38.4311 121.734 39.0661 121.734 39.8751C121.734 40.45 121.6 40.9394 121.333 41.3432C121.066 41.7469 120.685 42.0427 120.193 42.2258L121.854 44.7265H120.764V44.7295ZM120.234 41.121C120.567 40.8298 120.733 40.4155 120.733 39.8766C120.733 39.3378 120.567 38.9235 120.234 38.6368C119.901 38.3501 119.417 38.206 118.783 38.206H117.082V41.5578H118.783C119.417 41.5578 119.899 41.4122 120.234 41.121Z" fill="#242424"/>
<path d="M125.581 44.5544C125.091 44.3803 124.706 44.1552 124.425 43.879L124.795 43.0489C125.062 43.3041 125.403 43.5112 125.821 43.6718C126.237 43.8309 126.666 43.912 127.106 43.912C127.686 43.912 128.12 43.8069 128.408 43.5983C128.694 43.3896 128.838 43.1104 128.838 42.7622C128.838 42.507 128.759 42.2999 128.602 42.1393C128.446 41.9801 128.252 41.8571 128.022 41.7715C127.792 41.6859 127.466 41.5899 127.047 41.4848C126.521 41.3497 126.095 41.2146 125.771 41.081C125.448 40.9459 125.172 40.7388 124.942 40.4581C124.712 40.1774 124.596 39.8006 124.596 39.3248C124.596 38.927 124.695 38.5698 124.891 38.25C125.087 37.9303 125.386 37.6751 125.786 37.4845C126.186 37.2924 126.683 37.1963 127.276 37.1963C127.689 37.1963 128.096 37.2533 128.497 37.3659C128.897 37.48 129.24 37.6421 129.527 37.8552L129.197 38.7063C128.903 38.5082 128.59 38.3566 128.257 38.2545C127.924 38.1525 127.596 38.0999 127.276 38.0999C126.708 38.0999 126.284 38.2095 126 38.4302C125.716 38.6508 125.575 38.9345 125.575 39.2812C125.575 39.5364 125.656 39.7436 125.815 39.9042C125.975 40.0633 126.174 40.1879 126.411 40.2764C126.648 40.365 126.97 40.4596 127.376 40.5586C127.902 40.6937 128.327 40.8288 128.646 40.9624C128.966 41.0975 129.242 41.3032 129.472 41.5794C129.702 41.8556 129.817 42.2293 129.817 42.6961C129.817 43.0864 129.717 43.4437 129.517 43.7664C129.316 44.0891 129.013 44.3443 128.607 44.5319C128.2 44.7196 127.699 44.8141 127.106 44.8141C126.58 44.8141 126.072 44.7271 125.581 44.5544Z" fill="#242424"/>
<path d="M4.82228 0.563477H0V27.6305H4.82228V0.563477Z" fill="#242424"/>
<path d="M77.8904 0.560547H73.0681V27.6275H77.8904V0.560547Z" fill="#242424"/>
<path d="M36.0901 0.527344V27.5943H35.7542V27.6274H31.2692L16.2887 8.38836V27.6274H11.4565V0.560367H16.2816V0.585885H16.2887L31.2692 20.1566V0.527344H36.0901Z" fill="#242424"/>
<path d="M108.849 16.4267C107.812 22.7896 102.593 27.6275 96.3186 27.6275C89.2905 27.6275 83.5933 21.5678 83.5933 14.0925C83.5933 6.6218 89.2919 0.560547 96.3186 0.560547C99.8835 0.560547 103.105 2.12014 105.41 4.6344L102.068 8.1889C100.617 6.58277 98.578 5.58757 96.32 5.58757C91.9014 5.58757 88.3252 9.39574 88.3252 14.091C88.3252 18.7863 91.9014 22.5945 96.32 22.5945C99.9583 22.5945 103.028 20.0067 103.996 16.4672H96.3525V11.925H104.621L108.849 16.4267Z" fill="#242424"/>
<path d="M63.5788 4.52526C61.2785 2.07404 58.0947 0.55948 54.582 0.55948H47.5808V0.542969H42.7246V27.643H47.5808V27.6265H54.582C61.6101 27.6265 67.3074 21.5667 67.3074 14.0915C67.3074 10.3539 65.8834 6.97198 63.5788 4.52526ZM59.9745 20.2923C58.4842 21.8774 56.4209 22.8606 54.1474 22.8606H47.5793V5.32532H54.1474C58.6987 5.32532 62.3877 9.24908 62.3877 14.09C62.3891 16.5142 61.469 18.7072 59.9745 20.2923Z" fill="#242424"/>
<path d="M127.278 0.560547C120.25 0.560547 114.552 6.6218 114.552 14.0925C114.552 21.5678 120.251 27.6275 127.278 27.6275C134.301 27.6275 140 21.5678 140 14.0925C140 6.6203 134.301 0.560547 127.278 0.560547ZM127.278 22.5044C122.91 22.5044 119.369 18.7383 119.369 14.0925C119.369 9.45128 122.91 5.68364 127.278 5.68364C131.641 5.68364 135.183 9.44978 135.183 14.0925C135.183 18.7383 131.643 22.5044 127.278 22.5044Z" fill="#242424"/>
</svg>
